<?xml version="1.0" encoding="UTF-8"?>
<!DOCTYPE svg PUBLIC "-//W3C//DTD SVG 1.1//EN" "http://www.w3.org/Graphics/SVG/1.1/DTD/svg11.dtd">
<!-- Creator: CorelDRAW X7 -->
<svg xmlns="http://www.w3.org/2000/svg" xml:space="preserve" width="710px" height="378px" version="1.1" shape-rendering="geometricPrecision" text-rendering="geometricPrecision" image-rendering="optimizeQuality" fill-rule="evenodd" clip-rule="evenodd"
viewBox="0 0 234 124"
 xmlns:xlink="http://www.w3.org/1999/xlink">
 <g id="Слой_x0020_1">
  <metadata id="CorelCorpID_0Corel-Layer"/>
  <g id="_772103056">
   <path fill="#393185" fill-rule="nonzero" d="M21 21c-1,-2 -1,-4 -1,-5l0 -12c1,0 3,0 5,1l1 -5 -16 0 -2 5c2,-1 4,-1 6,-1l0 12c0,2 0,3 0,5l7 0zm18 1c4,0 8,-3 10,-7 1,-1 1,-3 1,-4 0,-6 -4,-11 -11,-11 -4,0 -11,2 -11,11 0,7 5,11 11,11zm-4 -18c1,0 2,0 2,0 4,0 7,4 7,8 0,2 0,4 -2,5l-1 0c-3,0 -8,-2 -8,-7 0,-2 1,-4 2,-6zm24 0l1 0c1,0 3,0 3,2 0,1 -1,2 -3,3l-1 0 0 -5zm6 6l1 0c1,-1 2,-3 2,-4 0,-2 -1,-4 -2,-4 -1,-1 -3,-2 -6,-2l-7 0c0,2 1,3 1,4l0 13c0,2 -1,3 -1,4l8 0c4,0 5,0 6,-1 2,-1 2,-3 2,-5 0,-1 0,-3 -1,-4 -1,0 -1,-1 -3,-1l0 0zm-5 2c1,0 2,0 2,1 1,0 1,1 1,2 0,1 -1,3 -3,3l-1 0 0 -6 1 0zm21 1l2 4c0,0 0,1 0,1l5 0c0,0 -1,-1 -1,-2l-2 -3 2 -4c1,0 1,0 1,-1l-5 0c0,1 0,1 0,2l-2 3zm6 0l2 4c0,0 0,1 1,1l4 0c0,0 0,-1 -1,-2l-1 -3 2 -4c0,0 0,0 0,-1l-4 0c-1,1 -1,1 -1,2l-2 3zm28 8c-2,-2 -5,-5 -8,-11l2 -4c2,-3 4,-4 5,-6l-7 0c0,1 0,2 -1,3l-3 5 0 -4c0,-2 0,-3 1,-4l-7 0c0,2 0,4 0,7l0 9c0,2 0,4 0,5l7 0c-1,-1 -1,-2 -1,-4l0 -4c2,3 4,6 6,8l6 0zm7 -12l0 -2 -6 0c1,1 1,2 1,3l0 11c0,2 0,3 -1,5l7 0c-1,-1 -1,-2 -1,-4l0 -1 1 0c1,0 1,1 2,1 4,0 6,-4 6,-8 0,-5 -3,-8 -6,-8 0,0 -1,0 -1,0l-2 3zm0 2c1,-1 1,-1 2,-1 1,0 2,2 2,4 0,2 -1,4 -3,4 0,0 -1,0 -1,0l0 -7zm18 1c-3,1 -5,2 -6,2 -1,1 -1,2 -1,3 0,3 1,5 4,5 0,0 0,-1 1,-1l2 -1 0 1 6 0c-1,-1 -1,-2 -1,-3l0 -6c0,-3 -1,-4 -2,-5 -1,0 -2,-1 -4,-1 -1,0 -2,1 -4,1l-1 3c2,0 3,0 3,0 2,0 2,0 3,1l0 1zm0 3l0 3c-1,0 -1,0 -1,0 -1,0 -2,0 -2,-1 0,-1 0,-1 1,-2l2 0zm8 -8c0,1 1,2 1,4l0 6c0,2 -1,3 -1,4l6 0c0,0 0,-1 0,-1 0,-1 0,-2 1,-3l2 -4 0 4c0,2 0,3 0,4l6 0c-1,-1 -1,-2 -1,-4l0 -6c0,-2 0,-3 1,-4l-6 0c0,0 0,1 0,1 0,1 0,1 0,2l-4 4 0 -3c0,-2 1,-3 1,-4l-6 0zm2 -6c1,3 3,4 5,4 3,0 5,-1 6,-4l-4 0c0,1 0,1 0,1 0,1 -1,1 -1,1 -1,0 -2,0 -2,-1 0,0 0,0 0,-1l-4 0zm24 20c0,-1 0,-2 0,-4l0 -7c1,0 2,0 3,0l1 -3 -13 0 -1 4c1,-1 3,-1 5,-1l0 7c0,2 0,3 -1,4l6 0zm18 -6c0,-1 0,-2 0,-2 0,-2 -1,-4 -2,-5 -1,-1 -2,-2 -4,-2 -2,0 -4,1 -5,3 -1,1 -2,3 -2,5 0,2 1,4 2,5 1,2 4,3 6,3 1,0 2,-1 3,-1l2 -4c-2,1 -3,1 -4,1 -2,0 -3,-1 -4,-3l8 0zm-4 -3l-4 0c0,-2 1,-3 2,-3 1,0 2,1 2,2l0 1zm22 9c-1,-2 -2,-3 -3,-3l-3 -5 2 -3c1,-1 2,-2 4,-3l-6 0c-1,1 -1,1 -1,2l-1 1 -1 -1c-1,-1 -1,-1 -1,-2l-7 0c2,1 2,2 4,4l2 3 -3 4c-1,1 -2,2 -2,2l-1 1 6 0c0,-1 1,-2 1,-2l1 -2 1 2c1,0 1,1 1,2l7 0zm7 -8l-1 -3c0,-1 -1,-1 -1,-2l-4 0c0,1 0,1 1,2l1 3 -2 4c0,0 0,1 0,1l4 0c0,-1 1,-1 1,-2l1 -3zm7 0l-2 -3c0,-1 0,-1 0,-2l-5 0c0,1 1,1 1,2l1 3 -1 4c-1,0 -1,1 -1,1l5 0c0,-1 0,-1 0,-2l2 -3zm-219 30l1 0c0,0 2,1 2,2 0,1 -1,2 -2,2l-1 0 0 -4zm5 5l0 -1c1,0 2,-1 2,-2 0,-2 -1,-3 -2,-3 -1,-1 -2,-1 -4,-1l-6 0c1,1 1,2 1,3l0 8c0,1 -1,2 -1,3l6 0c3,0 4,0 5,-1 1,0 2,-1 2,-3 0,-1 -1,-3 -3,-3l0 0zm-4 1c1,0 2,1 2,2 0,1 -1,2 -2,2l-1 0 0 -4 1 0zm7 -8c1,1 2,3 3,5l3 7 0 1c-1,2 -2,4 -4,5l-1 1 6 0c1,-1 2,-2 3,-4 0,-1 1,-2 2,-3l1 -5c1,-2 2,-4 3,-5l1 -2 -6 0 0 1c0,1 0,3 -1,4l-1 2 -2 -5c0,0 0,-1 0,-2l-7 0zm32 14c-1,-1 -1,-2 -1,-3l-3 -8c-1,-1 -1,-2 -1,-3l-6 0c0,0 1,1 1,1 0,1 -1,1 -1,2l-2 6c-1,3 -2,4 -3,5l5 0c0,-1 0,-2 3,-9l2 6c0,2 0,2 0,3l6 0zm5 1c2,0 3,-2 3,-3 0,-2 -1,-3 -3,-3 -1,0 -3,1 -3,3 0,1 2,3 3,3zm17 -21c1,1 1,3 1,5l0 11c0,2 0,3 -1,4l7 0c0,-2 0,-3 0,-5l0 -3c2,0 5,0 6,-1 2,-1 2,-3 2,-5 0,-3 -1,-5 -3,-6 -2,0 -3,0 -5,0l-7 0zm6 9l0 -6 1 0c1,0 3,1 3,3 0,1 0,2 -1,2 -1,1 -1,1 -3,1zm10 -3c1,1 2,3 3,5l3 7 0 1c-1,2 -3,4 -4,5l-1 1 6 0c1,-1 2,-2 3,-4 0,-1 1,-2 1,-3l2 -5c1,-2 2,-4 3,-5l1 -2 -6 0 0 1c0,1 -1,3 -1,4l-1 2 -2 -5c0,0 0,-1 0,-2l-7 0zm29 0c-2,0 -2,0 -4,0 -4,0 -8,3 -8,7 0,4 3,8 8,8 1,0 2,0 3,-1l2 -4c-2,1 -3,1 -4,1 -2,0 -4,-2 -4,-4 0,-3 2,-4 4,-4 1,0 2,0 3,1l0 -4zm2 0c1,1 1,2 1,4l0 7c0,1 -1,3 -1,3l6 0c3,0 7,-1 7,-5 0,-3 -3,-4 -6,-4l-1 1 0 -2c0,-2 0,-3 1,-4l-7 0zm6 8l0 0c1,0 2,1 2,2 0,1 -1,2 -2,2l0 0 0 -4zm15 6c0,-1 -1,-2 -1,-3l0 -3 2 3c1,1 2,2 3,3l6 0c-3,-2 -5,-4 -7,-8l2 -2c2,-2 3,-3 4,-4l-6 0c-1,1 -1,2 -2,3l-2 3 0 -2c0,-2 0,-3 1,-4l-6 0c0,1 0,2 0,4l0 6c0,1 0,3 0,4l6 0zm18 -9c-3,1 -5,2 -6,2 -1,1 -2,2 -2,4 0,2 2,4 5,4 0,0 0,0 0,0l3 -2 0 1 5 0c0,-1 0,-2 0,-3l0 -6c0,-2 -1,-4 -2,-4 -1,-1 -2,-1 -4,-1 -1,0 -2,0 -4,0l-1 4c1,-1 2,-1 3,-1 1,0 2,1 2,2l1 0zm0 3l0 3c-1,0 -1,0 -2,0 -1,0 -1,0 -1,-1 0,-1 0,-1 0,-2l3 0zm10 10c2,-2 4,-5 5,-9l-6 0c0,1 0,1 0,1 0,3 -1,6 -3,8l4 0zm32 -4l1 -4c-1,0 -2,1 -3,1l-5 0 5 -7c2,-2 2,-3 2,-6 0,-2 -1,-3 -3,-4 -1,-1 -2,-1 -3,-1 -2,0 -4,1 -5,2 -1,1 -2,2 -2,4 0,0 0,1 0,1l5 2c-1,-1 -1,-1 -1,-1 0,-2 1,-3 1,-3 1,-1 1,-1 2,-1 1,0 2,1 2,2 0,1 -1,1 -2,2l-9 13 15 0zm12 1c2,0 4,-1 6,-3 2,-2 2,-5 2,-8 0,-3 0,-5 -1,-7 -2,-3 -4,-4 -7,-4 -2,0 -4,1 -6,3 -1,2 -2,5 -2,8 0,3 0,5 2,7 1,3 3,4 6,4zm3 -11c0,4 -1,7 -3,7 -1,0 -2,-1 -2,-2 0,-2 -1,-3 -1,-5 0,-1 1,-3 1,-4 0,-2 1,-3 2,-3 2,0 2,1 3,3 0,1 0,2 0,4zm15 11c3,0 5,-1 6,-3 2,-2 3,-5 3,-8 0,-3 -1,-5 -2,-7 -2,-3 -4,-4 -7,-4 -2,0 -4,1 -6,3 -1,2 -2,5 -2,8 0,3 1,5 2,7 2,3 4,4 6,4zm3 -11c0,4 -1,7 -3,7 -1,0 -1,-1 -2,-2 0,-2 0,-3 0,-5 0,-1 0,-3 0,-4 1,-2 1,-3 2,-3 2,0 2,1 3,3 0,1 0,2 0,4zm-208 45c2,0 4,-1 5,-3 2,-2 3,-5 3,-8 0,-3 -1,-5 -2,-7 -2,-2 -4,-4 -6,-4 -3,0 -5,1 -6,3 -2,2 -3,5 -3,8 0,3 1,6 2,7 2,3 4,4 7,4zm2 -11c0,5 -1,7 -2,7 -1,0 -2,-1 -3,-2 0,-1 0,-3 0,-5 0,-1 0,-3 0,-4 1,-2 2,-3 3,-3 1,0 2,2 2,3 0,1 0,3 0,4zm8 9c3,2 4,2 6,2 2,0 4,-1 6,-2 1,-1 2,-3 2,-5 0,-3 -3,-7 -6,-7 0,0 -1,0 -1,1l0 -4 3 0c2,0 2,0 3,0l1 -4 -13 0c1,2 1,5 1,7 0,1 0,3 0,4 1,0 2,0 3,0 1,0 3,1 3,3 0,2 -1,3 -3,3 -1,0 -2,0 -3,-1l-2 3zm26 2c2,0 4,-1 6,-3 2,-2 2,-5 2,-8 0,-3 0,-5 -2,-7 -1,-2 -3,-4 -6,-4 -2,0 -4,1 -6,3 -2,2 -2,5 -2,8 0,3 0,6 2,7 1,3 3,4 6,4zm3 -11c0,5 -1,7 -3,7 -1,0 -2,-1 -2,-2 -1,-1 -1,-3 -1,-5 0,-1 0,-3 1,-4 0,-2 1,-3 2,-3 1,0 2,2 2,3 1,1 1,3 1,4zm26 11l0 -1c0,-1 0,-1 1,-2l4 -6c1,-2 1,-4 1,-6 0,-2 0,-3 -2,-5 -1,-1 -3,-2 -5,-2 -3,0 -5,2 -7,4 0,1 -1,2 -1,3 0,4 3,6 7,7l0 0 -2 4c-1,1 -2,2 -3,4l7 0zm-4 -15c0,-1 1,-3 3,-3 1,0 3,2 3,3 0,2 -2,3 -3,3 -2,0 -3,-1 -3,-3zm14 -2c2,0 3,0 5,0l4 0 -6 14c-1,1 -1,2 -2,3l6 0 0 -1c0,0 0,0 0,-1l8 -17c0,-1 1,-1 1,-2l-15 0 -1 4zm21 6l-1 0c-1,1 -2,3 -2,4 0,4 4,7 8,7 4,0 7,-3 7,-7 0,-1 -1,-3 -2,-4l0 -1 0 0c1,-1 1,-2 1,-4 0,-1 0,-2 0,-3 -2,-2 -4,-3 -7,-3 -2,0 -3,1 -4,2 -2,1 -2,3 -2,4 0,2 0,3 1,4l1 1zm2 4c0,-1 1,-2 3,-2 1,0 2,1 2,2 0,2 -1,3 -2,3 -2,0 -3,-1 -3,-3zm5 -8c0,1 -1,2 -3,2 -1,0 -2,-1 -2,-2 0,-2 1,-3 3,-3 1,0 2,2 2,3zm20 0l4 0 0 11c0,1 -1,3 -1,4l6 0c0,-2 0,-3 0,-6l0 -16 -9 7zm19 4l-1 0c-1,1 -1,3 -1,4 0,4 3,7 7,7 4,0 7,-3 7,-7 0,-1 0,-3 -1,-4l-1 -1 1 0c1,-1 1,-2 1,-4 0,-1 0,-2 -1,-3 -1,-2 -3,-3 -6,-3 -2,0 -4,1 -5,2 -1,1 -2,3 -2,4 0,2 0,3 1,4l1 1zm2 4c0,-1 2,-2 3,-2 2,0 3,1 3,2 0,2 -1,3 -3,3 -1,0 -3,-1 -3,-3zm6 -8c0,1 -2,2 -3,2 -1,0 -3,-1 -3,-2 0,-2 2,-3 3,-3 2,0 3,2 3,3zm25 -6l0 1c-1,0 -1,1 -1,1l-3 5c-2,3 -3,4 -3,7 0,2 1,4 2,5 2,1 3,2 6,2 2,0 4,-1 5,-2 1,-1 2,-3 2,-5 0,-4 -2,-6 -6,-6 0,0 -1,0 -1,0l3 -5c1,-1 1,-2 3,-3l-7 0zm-2 14c0,-1 1,-2 2,-2 2,0 3,1 3,2 0,2 -1,3 -3,3 -1,0 -2,-1 -2,-3zm13 -10c2,0 4,0 6,0l4 0 -7 14c-1,1 -1,2 -2,3l6 0 0 -1c0,0 0,0 1,-1l7 -17c1,-1 1,-1 2,-2l-15 0 -2 4zm-186 51c2,0 4,-1 5,-3 2,-2 3,-5 3,-7 0,-3 -1,-6 -2,-8 -2,-2 -4,-3 -6,-3 -3,0 -5,1 -6,3 -2,2 -3,4 -3,8 0,2 1,5 2,7 2,2 4,3 7,3zm2 -11c0,5 -1,7 -2,7 -1,0 -2,0 -3,-2 0,-1 0,-3 0,-5 0,-1 0,-2 0,-3 1,-3 2,-3 3,-3 1,0 2,1 2,3 0,1 0,2 0,3zm8 10c3,1 4,1 6,1 2,0 4,0 6,-2 1,-1 2,-3 2,-5 0,-3 -3,-6 -6,-6 0,0 -1,0 -1,0l0 -4 3 0c2,0 2,0 3,1l1 -5 -13 0c1,2 1,5 1,7 0,1 0,3 0,5 1,-1 2,-1 3,-1 1,0 3,1 3,3 0,2 -1,3 -3,3 -1,0 -2,0 -3,-1l-2 4zm26 1c2,0 4,-1 6,-3 2,-2 2,-5 2,-7 0,-3 0,-6 -2,-8 -1,-2 -3,-3 -6,-3 -2,0 -4,1 -6,3 -2,2 -2,4 -2,8 0,2 0,5 2,7 1,2 3,3 6,3zm3 -11c0,5 -1,7 -3,7 -1,0 -2,0 -2,-2 -1,-1 -1,-3 -1,-5 0,-1 0,-2 1,-3 0,-3 1,-3 2,-3 1,0 2,1 2,3 1,1 1,2 1,3zm32 11l1 -5c-2,1 -2,1 -4,1l-4 0 5 -7c1,-2 2,-3 2,-5 0,-2 -1,-4 -3,-5 -1,0 -3,0 -4,0 -2,0 -3,0 -4,1 -2,1 -2,3 -2,5 0,0 0,0 0,1l4 1c0,0 0,0 0,-1 0,-2 0,-2 1,-3 0,0 1,0 1,0 1,0 2,0 2,1 0,1 0,2 -1,3l-9 13 15 0zm5 -16c1,-1 2,-1 5,-1l2 0 -3 7 0 0c2,0 3,2 3,3 0,2 -1,3 -3,3 -1,0 -2,0 -3,-1l-2 3c3,2 5,2 7,2 2,0 3,0 5,-2 1,-1 2,-3 2,-5 0,-2 -1,-4 -3,-5l4 -9 -13 0 -1 5zm20 5l-1 0c-1,2 -2,3 -2,5 0,4 4,6 8,6 4,0 7,-2 7,-7 0,-1 -1,-3 -2,-4l0 0 0 -1c1,-1 1,-2 1,-3 0,-1 0,-2 0,-3 -2,-2 -4,-3 -7,-3 -2,0 -3,0 -4,1 -2,1 -2,3 -2,5 0,1 0,2 1,3l1 1zm2 5c0,-2 1,-3 3,-3 1,0 2,1 2,3 0,1 -1,2 -2,2 -2,0 -3,-1 -3,-2zm5 -9c0,1 -1,2 -3,2 -1,0 -2,-1 -2,-2 0,-1 1,-2 3,-2 1,0 2,1 2,2zm25 -6l0 1c0,0 0,1 -1,2l-3 5c-1,2 -3,4 -3,6 0,3 1,4 3,6 1,1 3,1 5,1 2,0 4,0 5,-1 2,-2 2,-4 2,-6 0,-3 -2,-6 -6,-6 0,0 0,0 -1,0l4 -5c0,-1 1,-2 2,-3l-7 0zm-2 15c0,-2 1,-3 3,-3 1,0 3,1 3,3 0,1 -1,2 -3,2 -2,0 -3,-1 -3,-2zm16 -5l-1 0c-1,2 -1,3 -1,5 0,4 3,6 7,6 4,0 7,-2 7,-7 0,-1 0,-3 -1,-4l-1 0 1 -1c1,-1 1,-2 1,-3 0,-1 0,-2 -1,-3 -1,-2 -3,-3 -6,-3 -2,0 -4,0 -5,1 -1,1 -2,3 -2,5 0,1 0,2 1,3l1 1zm2 5c0,-2 2,-3 3,-3 2,0 3,1 3,3 0,1 -1,2 -3,2 -1,0 -3,-1 -3,-2zm6 -9c0,1 -2,2 -3,2 -1,0 -3,-1 -3,-2 0,-1 2,-2 3,-2 2,0 3,1 3,2zm32 15l1 -5c-1,1 -2,1 -4,1l-4 0 5 -7c1,-2 2,-3 2,-5 0,-2 -1,-4 -3,-5 -1,0 -2,0 -3,0 -2,0 -4,0 -5,1 -1,1 -2,3 -2,5 0,0 0,0 0,1l4 1c0,0 0,0 0,-1 0,-2 0,-2 1,-3 0,0 1,0 2,0 1,0 1,0 1,1 0,1 0,2 -1,3l-9 13 15 0z"/>
   <path fill="#393185" fill-rule="nonzero" d="M214 124l0 -1c0,0 1,-1 1,-2l4 -6c1,-2 2,-4 2,-5 0,-2 -1,-4 -2,-5 -2,-2 -3,-2 -6,-2 -3,0 -5,1 -6,3 -1,1 -1,2 -1,3 0,4 2,7 6,7l1 0 -3 4c-1,1 -1,2 -3,4l7 0zm-3 -15c0,-1 1,-2 2,-2 2,0 3,1 3,2 0,2 -1,3 -3,3 -1,0 -2,-1 -2,-3z"/>
  </g>
 </g>
</svg>
