<?xml version="1.0" encoding="UTF-8"?>
<!DOCTYPE svg PUBLIC "-//W3C//DTD SVG 1.1//EN" "http://www.w3.org/Graphics/SVG/1.1/DTD/svg11.dtd">
<!-- Creator: CorelDRAW X7 -->
<svg xmlns="http://www.w3.org/2000/svg" xml:space="preserve" width="2221px" height="1178px" version="1.1" style="shape-rendering:geometricPrecision; text-rendering:geometricPrecision; image-rendering:optimizeQuality; fill-rule:evenodd; clip-rule:evenodd"
viewBox="0 0 2221 1178"
 xmlns:xlink="http://www.w3.org/1999/xlink">
 <defs>
  <style type="text/css">
   <![CDATA[
    .str0 {stroke:#FEFEFE;stroke-width:2.36208;stroke-linecap:round;stroke-linejoin:round}
    .fil0 {fill:none;fill-rule:nonzero}
    .fil1 {fill:#E31E24;fill-rule:nonzero}
   ]]>
  </style>
 </defs>
 <g id="Слой_x0020_1">
  <metadata id="CorelCorpID_0Corel-Layer"/>
  <g id="_772103056">
   <g>
    <path class="fil0 str0" d="M200 200c-9,-19 -9,-38 -9,-47l0 -114c9,0 28,0 47,10l10 -48 -152 0 -19 48c19,-10 38,-10 57,-10l0 114c0,19 0,28 0,47l66 0 0 0zm171 10c38,0 76,-29 95,-67 9,-9 9,-28 9,-38 0,-56 -38,-104 -104,-104 -38,0 -104,19 -104,104 0,67 47,105 104,105zm-38 -171c10,0 19,0 19,0 38,0 66,38 66,76 0,19 0,38 -19,47l-9 0c-29,0 -76,-19 -76,-66 0,-19 10,-38 19,-57zm228 0l9 0c10,0 29,0 29,19 0,10 -10,19 -29,29l-9 0 0 -48zm56 57l10 0c9,-9 19,-28 19,-38 0,-19 -10,-38 -19,-38 -10,-9 -28,-19 -57,-19l-66 0c0,19 9,29 9,38l0 123c0,19 -9,29 -9,38l76 0c37,0 47,0 56,-9 19,-10 19,-29 19,-48 0,-9 0,-28 -9,-38 -10,0 -10,-9 -29,-9l0 0 0 0zm-47 19c10,0 19,0 19,9 10,0 10,10 10,19 0,10 -10,29 -29,29l-9 0 0 -57 9 0zm199 9l19 38c0,0 0,10 0,10l48 0c0,0 -10,-10 -10,-19l-19 -29 19 -37c10,0 10,0 10,-10l-48 0c0,10 0,10 0,19l-19 28zm57 0l19 38c0,0 0,10 10,10l37 0c0,0 0,-10 -9,-19l-10 -29 19 -37c0,0 0,0 0,-10l-37 0c-10,10 -10,10 -10,19l-19 28zm266 76c-19,-19 -48,-47 -76,-104l19 -38c19,-28 38,-38 47,-57l-66 0c0,10 0,19 -10,29l-28 47 0 -38c0,-19 0,-28 9,-38l-66 0c0,19 0,38 0,67l0 85c0,19 0,38 0,47l66 0c-9,-9 -9,-19 -9,-38l0 -38c19,29 38,57 57,76l57 0zm66 -113l0 -19 -57 0c10,9 10,19 10,28l0 104c0,19 0,29 -10,48l66 0c-9,-10 -9,-19 -9,-38l0 -10 9 0c10,0 10,10 19,10 38,0 57,-38 57,-76 0,-47 -28,-76 -57,-76 0,0 -9,0 -9,0l-19 29zm0 18c9,-9 9,-9 19,-9 9,0 19,19 19,38 0,19 -10,38 -29,38 0,0 -9,0 -9,0l0 -67zm171 10c-29,9 -48,19 -57,19 -10,9 -10,19 -10,28 0,29 10,48 38,48 0,0 0,-10 10,-10l19 -9 0 9 56 0c-9,-9 -9,-19 -9,-28l0 -57c0,-28 -10,-38 -19,-47 -9,0 -19,-10 -38,-10 -9,0 -19,10 -38,10l-9 28c19,0 28,0 28,0 19,0 19,0 29,9l0 10zm0 28l0 29c-10,0 -10,0 -10,0 -9,0 -19,0 -19,-10 0,-9 0,-9 10,-19l19 0zm75 -75c0,9 10,19 10,37l0 57c0,19 -10,29 -10,38l57 0c0,0 0,-9 0,-9 0,-10 0,-19 10,-29l19 -38 0 38c0,19 0,29 0,38l57 0c-10,-9 -10,-19 -10,-38l0 -57c0,-18 0,-28 10,-37l-57 0c0,0 0,9 0,9 0,10 0,10 0,19l-38 38 0 -29c0,-18 9,-28 9,-37l-57 0zm19 -57c10,28 29,38 48,38 28,0 47,-10 57,-38l-38 0c0,9 0,9 0,9 0,10 -10,10 -10,10 -9,0 -19,0 -19,-10 0,0 0,0 0,-9l-38 0zm228 189c0,-9 0,-19 0,-38l0 -66c9,0 19,0 28,0l10 -28 -123 0 -10 37c10,-9 29,-9 48,-9l0 66c0,19 0,29 -10,38l57 0 0 0zm171 -57c0,-9 0,-19 0,-19 0,-19 -10,-37 -19,-47 -10,-9 -19,-19 -38,-19 -19,0 -38,10 -48,29 -9,9 -19,28 -19,47 0,19 10,38 19,47 10,19 38,29 57,29 10,0 19,-10 29,-10l19 -38c-19,10 -29,10 -38,10 -19,0 -29,-10 -38,-29l76 0zm-38 -28l-38 0c0,-19 9,-28 19,-28 9,0 19,9 19,18l0 10zm208 85c-9,-19 -19,-28 -28,-28l-29 -48 19 -28c10,-9 19,-19 38,-28l-57 0c-9,9 -9,9 -9,19l-10 9 -9 -9c-10,-10 -10,-10 -10,-19l-66 0c19,9 19,19 38,37l19 29 -28 38c-10,9 -19,19 -19,19l-10 9 57 0c0,-9 9,-19 9,-19l10 -19 9 19c10,0 10,10 10,19l66 0zm67 -76l-10 -28c0,-9 -9,-9 -9,-19l-38 0c0,10 0,10 9,19l10 28 -19 38c0,0 0,10 0,10l38 0c0,-10 9,-10 9,-19l10 -29zm66 0l-19 -28c0,-9 0,-9 0,-19l-47 0c0,10 9,10 9,19l10 28 -10 38c-9,0 -9,10 -9,10l47 0c0,-10 0,-10 0,-19l19 -29zm-2076 285l9 0c0,0 19,9 19,19 0,9 -9,19 -19,19l-9 0 0 -38zm47 47l0 -9c9,0 19,-10 19,-19 0,-19 -10,-29 -19,-29 -9,-9 -19,-9 -38,-9l-57 0c10,9 10,19 10,28l0 76c0,10 -10,19 -10,29l57 0c29,0 38,0 47,-10 10,0 19,-9 19,-28 0,-10 -9,-29 -28,-29l0 0zm-38 10c10,0 19,9 19,19 0,9 -9,19 -19,19l-9 0 0 -38 9 0zm66 -76c10,9 19,28 29,47l28 67 0 9c-9,19 -19,38 -38,48l-9 9 57 0c9,-9 19,-19 28,-38 0,-9 10,-19 19,-28l10 -48c9,-19 19,-38 28,-47l10 -19 -57 0 0 9c0,10 0,29 -10,38l-9 19 -19 -47c0,0 0,-10 0,-19l-67 0zm304 133c-10,-10 -10,-19 -10,-29l-28 -76c-10,-9 -10,-19 -10,-28l-56 0c0,0 9,9 9,9 0,10 -9,10 -9,19l-19 57c-10,29 -19,38 -29,48l48 0c0,-10 0,-19 28,-86l19 57c0,19 0,19 0,29l57 0zm47 9c19,0 29,-19 29,-28 0,-19 -10,-29 -29,-29 -9,0 -28,10 -28,29 0,9 19,28 28,28zm161 -199c10,10 10,28 10,47l0 105c0,19 0,28 -10,38l67 0c0,-19 0,-29 0,-48l0 -28c19,0 47,0 57,-10 19,-9 19,-28 19,-47 0,-29 -10,-47 -29,-57 -19,0 -28,0 -47,0l-67 0zm57 85l0 -57 10 0c9,0 28,10 28,29 0,9 0,19 -9,19 -10,9 -10,9 -29,9zm95 -28c10,9 19,28 29,47l28 67 0 9c-9,19 -28,38 -38,48l-9 9 57 0c9,-9 18,-19 28,-38 0,-9 9,-19 9,-28l19 -48c10,-19 19,-38 29,-47l9 -19 -57 0 0 9c0,10 -9,29 -9,38l-10 19 -18 -47c0,0 0,-10 0,-19l-67 0zm275 0c-19,0 -19,0 -38,0 -38,0 -76,28 -76,66 0,38 29,76 76,76 10,0 19,0 29,-9l19 -38c-19,9 -29,9 -38,9 -19,0 -38,-19 -38,-38 0,-28 19,-38 38,-38 9,0 19,0 28,10l0 -38zm19 0c10,9 10,19 10,38l0 66c0,10 -10,29 -10,29l57 0c28,0 66,-10 66,-48 0,-28 -28,-38 -57,-38l-9 10 0 -19c0,-19 0,-29 9,-38l-66 0zm57 76l0 0c9,0 19,9 19,19 0,9 -10,19 -19,19l0 0 0 -38zm142 57c0,-10 -9,-19 -9,-29l0 -28 19 28c9,10 19,19 28,29l57 0c-28,-19 -47,-38 -66,-76l19 -19c19,-19 28,-29 37,-38l-56 0c-10,9 -10,19 -19,28l-19 29 0 -19c0,-19 0,-29 9,-38l-57 0c0,9 0,19 0,38l0 57c0,9 0,28 0,38l57 0zm171 -86c-29,10 -48,19 -57,19 -10,10 -19,19 -19,38 0,19 19,38 47,38 0,0 0,0 0,0l29 -19 0 10 47 0c0,-10 0,-19 0,-29l0 -57c0,-19 -9,-38 -19,-38 -9,-9 -19,-9 -38,-9 -9,0 -19,0 -38,0l-9 38c9,-10 19,-10 28,-10 10,0 19,10 19,19l10 0zm0 29l0 28c-10,0 -10,0 -19,0 -10,0 -10,0 -10,-9 0,-10 0,-10 0,-19l29 0zm95 95c19,-19 38,-48 47,-86l-57 0c0,10 0,10 0,10 0,28 -9,57 -28,76l38 0zm303 -38l10 -38c-10,0 -19,9 -29,9l-47 0 47 -66c19,-19 19,-29 19,-57 0,-19 -9,-28 -28,-38 -10,-9 -19,-9 -29,-9 -19,0 -38,9 -47,19 -10,9 -19,18 -19,37 0,0 0,10 0,10l47 19c-9,-10 -9,-10 -9,-10 0,-19 9,-28 9,-28 10,-10 10,-10 19,-10 10,0 19,10 19,19 0,10 -9,10 -19,19l-85 124 142 0 0 0zm114 9c19,0 38,-9 57,-28 19,-19 19,-48 19,-76 0,-29 0,-48 -10,-67 -19,-28 -38,-37 -66,-37 -19,0 -38,9 -57,28 -10,19 -19,47 -19,76 0,28 0,47 19,66 9,29 28,38 57,38zm28 -104c0,38 -9,66 -28,66 -10,0 -19,-9 -19,-19 0,-19 -10,-28 -10,-47 0,-10 10,-29 10,-38 0,-19 9,-29 19,-29 19,0 19,10 28,29 0,9 0,19 0,38zm142 104c29,0 48,-9 57,-28 19,-19 29,-48 29,-76 0,-29 -10,-48 -19,-67 -19,-28 -38,-37 -67,-37 -18,0 -37,9 -56,28 -10,19 -19,47 -19,76 0,28 9,47 19,66 19,29 38,38 56,38zm29 -104c0,38 -10,66 -29,66 -9,0 -9,-9 -18,-19 0,-19 0,-28 0,-47 0,-10 0,-29 0,-38 9,-19 9,-29 18,-29 19,0 19,10 29,29 0,9 0,19 0,38zm-1972 427c19,0 38,-10 47,-29 19,-19 29,-47 29,-76 0,-28 -10,-47 -19,-66 -19,-19 -38,-38 -57,-38 -29,0 -48,9 -57,28 -19,19 -29,48 -29,76 0,29 10,57 19,67 19,28 38,38 67,38zm19 -105c0,48 -10,67 -19,67 -10,0 -19,-10 -29,-19 0,-10 0,-29 0,-48 0,-9 0,-28 0,-38 10,-19 19,-28 29,-28 9,0 19,19 19,28 0,10 0,29 0,38zm76 86c28,19 38,19 57,19 18,0 37,-10 56,-19 10,-10 19,-29 19,-48 0,-28 -28,-66 -57,-66 0,0 -9,0 -9,9l0 -38 28 0c19,0 19,0 29,0l9 -38 -123 0c10,19 10,48 10,67 0,9 0,28 0,38 9,0 19,0 28,0 10,0 28,9 28,28 0,19 -9,29 -28,29 -9,0 -19,0 -28,-10l-19 29 0 0zm246 19c19,0 38,-10 57,-29 19,-19 19,-47 19,-76 0,-28 0,-47 -19,-66 -9,-19 -28,-38 -57,-38 -19,0 -38,9 -57,28 -19,19 -19,48 -19,76 0,29 0,57 19,67 10,28 29,38 57,38zm29 -105c0,48 -10,67 -29,67 -9,0 -19,-10 -19,-19 -9,-10 -9,-29 -9,-48 0,-9 0,-28 9,-38 0,-19 10,-28 19,-28 10,0 19,19 19,28 10,10 10,29 10,38zm246 105l0 -10c0,-9 0,-9 10,-19l38 -57c9,-19 9,-38 9,-57 0,-19 0,-28 -19,-47 -9,-10 -28,-19 -47,-19 -29,0 -48,19 -67,38 0,9 -9,19 -9,28 0,38 28,57 66,67l0 0 -19 38c-9,9 -19,19 -28,38l66 0zm-38 -143c0,-9 10,-28 29,-28 9,0 28,19 28,28 0,19 -19,29 -28,29 -19,0 -29,-10 -29,-29zm133 -19c19,0 28,0 47,0l38 0 -57 133c-9,10 -9,19 -19,29l57 0 0 -10c0,0 0,0 0,-9l76 -162c0,-9 10,-9 10,-19l-143 0 -9 38 0 0zm199 57l-9 0c-10,10 -19,29 -19,38 0,38 38,67 75,67 38,0 67,-29 67,-67 0,-9 -10,-28 -19,-38l0 -9 0 0c9,-10 9,-19 9,-38 0,-10 0,-19 0,-29 -19,-19 -38,-28 -66,-28 -19,0 -28,9 -38,19 -19,9 -19,28 -19,38 0,19 0,28 10,38l9 9zm19 38c0,-9 9,-19 28,-19 10,0 19,10 19,19 0,19 -9,29 -19,29 -19,0 -28,-10 -28,-29zm47 -76c0,10 -9,19 -28,19 -10,0 -19,-9 -19,-19 0,-19 9,-28 28,-28 10,0 19,19 19,28zm190 0l38 0 0 105c0,9 -10,28 -10,38l57 0c0,-19 0,-29 0,-57l0 -152 -85 66 0 0zm180 38l-9 0c-10,10 -10,29 -10,38 0,38 29,67 67,67 37,0 66,-29 66,-67 0,-9 0,-28 -10,-38l-9 -9 9 0c10,-10 10,-19 10,-38 0,-10 0,-19 -10,-29 -9,-19 -28,-28 -56,-28 -19,0 -38,9 -48,19 -9,9 -19,28 -19,38 0,19 0,28 10,38l9 9zm19 38c0,-9 19,-19 29,-19 19,0 28,10 28,19 0,19 -9,29 -28,29 -10,0 -29,-10 -29,-29zm57 -76c0,10 -19,19 -28,19 -10,0 -29,-9 -29,-19 0,-19 19,-28 29,-28 19,0 28,19 28,28zm237 -57l0 10c-9,0 -9,9 -9,9l-29 48c-19,28 -28,38 -28,66 0,19 9,38 19,48 19,9 28,19 57,19 18,0 37,-10 47,-19 9,-10 19,-29 19,-48 0,-38 -19,-57 -57,-57 0,0 -9,0 -9,0l28 -47c9,-10 9,-19 28,-29l-66 0zm-19 133c0,-9 10,-19 19,-19 19,0 28,10 28,19 0,19 -9,29 -28,29 -9,0 -19,-10 -19,-29zm123 -95c19,0 38,0 57,0l38 0 -66 133c-10,10 -10,19 -19,29l57 0 0 -10c0,0 0,0 9,-9l67 -162c9,-9 9,-9 19,-19l-143 0 -19 38 0 0zm-1763 484c19,0 38,-10 47,-29 19,-19 29,-47 29,-66 0,-28 -10,-57 -19,-76 -19,-19 -38,-28 -57,-28 -29,0 -48,9 -57,28 -19,19 -29,38 -29,76 0,19 10,47 19,66 19,19 38,29 67,29zm19 -104c0,47 -10,66 -19,66 -10,0 -19,0 -29,-19 0,-9 0,-28 0,-47 0,-10 0,-19 0,-29 10,-28 19,-28 29,-28 9,0 19,9 19,28 0,10 0,19 0,29zm76 94c28,10 38,10 57,10 18,0 37,0 56,-19 10,-10 19,-29 19,-47 0,-29 -28,-57 -57,-57 0,0 -9,0 -9,0l0 -38 28 0c19,0 19,0 29,9l9 -47 -123 0c10,19 10,47 10,66 0,10 0,29 0,48 9,-10 19,-10 28,-10 10,0 28,10 28,29 0,18 -9,28 -28,28 -9,0 -19,0 -28,-10l-19 38 0 0zm246 10c19,0 38,-10 57,-29 19,-19 19,-47 19,-66 0,-28 0,-57 -19,-76 -9,-19 -28,-28 -57,-28 -19,0 -38,9 -57,28 -19,19 -19,38 -19,76 0,19 0,47 19,66 10,19 29,29 57,29zm29 -104c0,47 -10,66 -29,66 -9,0 -19,0 -19,-19 -9,-9 -9,-28 -9,-47 0,-10 0,-19 9,-29 0,-28 10,-28 19,-28 10,0 19,9 19,28 10,10 10,19 10,29zm303 104l9 -48c-18,10 -18,10 -37,10l-38 0 47 -66c10,-19 19,-29 19,-48 0,-19 -9,-38 -28,-47 -10,0 -29,0 -38,0 -19,0 -29,0 -38,9 -19,10 -19,29 -19,48 0,0 0,0 0,9l38 10c0,0 0,0 0,-10 0,-19 0,-19 9,-28 0,0 10,0 10,0 9,0 19,0 19,9 0,10 0,19 -10,29l-85 123 142 0 0 0zm47 -152c10,-9 19,-9 48,-9l19 0 -29 66 0 0c19,0 29,19 29,29 0,18 -10,28 -29,28 -9,0 -19,0 -28,-10l-19 29c28,19 47,19 66,19 19,0 29,0 48,-19 9,-10 19,-29 19,-47 0,-19 -10,-38 -29,-48l38 -85 -123 0 -10 47 0 0zm190 48l-9 0c-10,19 -19,28 -19,47 0,38 38,57 75,57 38,0 67,-19 67,-66 0,-10 -10,-29 -19,-38l0 0 0 -10c9,-9 9,-19 9,-28 0,-10 0,-19 0,-29 -19,-19 -38,-28 -66,-28 -19,0 -28,0 -38,9 -19,10 -19,29 -19,48 0,9 0,19 10,28l9 10zm19 47c0,-19 9,-28 28,-28 10,0 19,9 19,28 0,9 -9,19 -19,19 -19,0 -28,-10 -28,-19zm47 -85c0,9 -9,19 -28,19 -10,0 -19,-10 -19,-19 0,-10 9,-19 28,-19 10,0 19,9 19,19zm237 -57l0 9c0,0 0,10 -9,19l-29 48c-9,19 -28,38 -28,57 0,28 10,37 28,56 10,10 29,10 48,10 19,0 38,0 47,-10 19,-19 19,-38 19,-56 0,-29 -19,-57 -57,-57 0,0 0,0 -9,0l38 -48c0,-9 9,-19 19,-28l-67 0zm-19 142c0,-19 10,-28 29,-28 9,0 28,9 28,28 0,9 -9,19 -28,19 -19,0 -29,-10 -29,-19zm152 -47l-9 0c-10,19 -10,28 -10,47 0,38 29,57 67,57 37,0 66,-19 66,-66 0,-10 0,-29 -10,-38l-9 0 9 -10c10,-9 10,-19 10,-28 0,-10 0,-19 -10,-29 -9,-19 -28,-28 -56,-28 -19,0 -38,0 -48,9 -9,10 -19,29 -19,48 0,9 0,19 10,28l9 10zm19 47c0,-19 19,-28 29,-28 19,0 28,9 28,28 0,9 -9,19 -28,19 -10,0 -29,-10 -29,-19zm57 -85c0,9 -19,19 -28,19 -10,0 -29,-10 -29,-19 0,-10 19,-19 29,-19 19,0 28,9 28,19zm303 142l10 -48c-10,10 -19,10 -38,10l-38 0 47 -66c10,-19 19,-29 19,-48 0,-19 -9,-38 -28,-47 -10,0 -19,0 -28,0 -19,0 -38,0 -48,9 -9,10 -19,29 -19,48 0,0 0,0 0,9l38 10c0,0 0,0 0,-10 0,-19 0,-19 10,-28 0,0 9,0 19,0 9,0 9,0 9,9 0,10 0,19 -9,29l-86 123 142 0 0 0z"/>
    <path id="1" class="fil1" d="M200 200c-9,-19 -9,-38 -9,-47l0 -114c9,0 28,0 47,10l10 -48 -152 0 -19 48c19,-10 38,-10 57,-10l0 114c0,19 0,28 0,47l66 0 0 0zm171 10c38,0 76,-29 95,-67 9,-9 9,-28 9,-38 0,-56 -38,-104 -104,-104 -38,0 -104,19 -104,104 0,67 47,105 104,105zm-38 -171c10,0 19,0 19,0 38,0 66,38 66,76 0,19 0,38 -19,47l-9 0c-29,0 -76,-19 -76,-66 0,-19 10,-38 19,-57zm228 0l9 0c10,0 29,0 29,19 0,10 -10,19 -29,29l-9 0 0 -48zm56 57l10 0c9,-9 19,-28 19,-38 0,-19 -10,-38 -19,-38 -10,-9 -28,-19 -57,-19l-66 0c0,19 9,29 9,38l0 123c0,19 -9,29 -9,38l76 0c37,0 47,0 56,-9 19,-10 19,-29 19,-48 0,-9 0,-28 -9,-38 -10,0 -10,-9 -29,-9l0 0 0 0zm-47 19c10,0 19,0 19,9 10,0 10,10 10,19 0,10 -10,29 -29,29l-9 0 0 -57 9 0zm199 9l19 38c0,0 0,10 0,10l48 0c0,0 -10,-10 -10,-19l-19 -29 19 -37c10,0 10,0 10,-10l-48 0c0,10 0,10 0,19l-19 28zm57 0l19 38c0,0 0,10 10,10l37 0c0,0 0,-10 -9,-19l-10 -29 19 -37c0,0 0,0 0,-10l-37 0c-10,10 -10,10 -10,19l-19 28zm266 76c-19,-19 -48,-47 -76,-104l19 -38c19,-28 38,-38 47,-57l-66 0c0,10 0,19 -10,29l-28 47 0 -38c0,-19 0,-28 9,-38l-66 0c0,19 0,38 0,67l0 85c0,19 0,38 0,47l66 0c-9,-9 -9,-19 -9,-38l0 -38c19,29 38,57 57,76l57 0zm66 -113l0 -19 -57 0c10,9 10,19 10,28l0 104c0,19 0,29 -10,48l66 0c-9,-10 -9,-19 -9,-38l0 -10 9 0c10,0 10,10 19,10 38,0 57,-38 57,-76 0,-47 -28,-76 -57,-76 0,0 -9,0 -9,0l-19 29zm0 18c9,-9 9,-9 19,-9 9,0 19,19 19,38 0,19 -10,38 -29,38 0,0 -9,0 -9,0l0 -67zm171 10c-29,9 -48,19 -57,19 -10,9 -10,19 -10,28 0,29 10,48 38,48 0,0 0,-10 10,-10l19 -9 0 9 56 0c-9,-9 -9,-19 -9,-28l0 -57c0,-28 -10,-38 -19,-47 -9,0 -19,-10 -38,-10 -9,0 -19,10 -38,10l-9 28c19,0 28,0 28,0 19,0 19,0 29,9l0 10zm0 28l0 29c-10,0 -10,0 -10,0 -9,0 -19,0 -19,-10 0,-9 0,-9 10,-19l19 0zm75 -75c0,9 10,19 10,37l0 57c0,19 -10,29 -10,38l57 0c0,0 0,-9 0,-9 0,-10 0,-19 10,-29l19 -38 0 38c0,19 0,29 0,38l57 0c-10,-9 -10,-19 -10,-38l0 -57c0,-18 0,-28 10,-37l-57 0c0,0 0,9 0,9 0,10 0,10 0,19l-38 38 0 -29c0,-18 9,-28 9,-37l-57 0zm19 -57c10,28 29,38 48,38 28,0 47,-10 57,-38l-38 0c0,9 0,9 0,9 0,10 -10,10 -10,10 -9,0 -19,0 -19,-10 0,0 0,0 0,-9l-38 0zm228 189c0,-9 0,-19 0,-38l0 -66c9,0 19,0 28,0l10 -28 -123 0 -10 37c10,-9 29,-9 48,-9l0 66c0,19 0,29 -10,38l57 0 0 0zm171 -57c0,-9 0,-19 0,-19 0,-19 -10,-37 -19,-47 -10,-9 -19,-19 -38,-19 -19,0 -38,10 -48,29 -9,9 -19,28 -19,47 0,19 10,38 19,47 10,19 38,29 57,29 10,0 19,-10 29,-10l19 -38c-19,10 -29,10 -38,10 -19,0 -29,-10 -38,-29l76 0zm-38 -28l-38 0c0,-19 9,-28 19,-28 9,0 19,9 19,18l0 10zm208 85c-9,-19 -19,-28 -28,-28l-29 -48 19 -28c10,-9 19,-19 38,-28l-57 0c-9,9 -9,9 -9,19l-10 9 -9 -9c-10,-10 -10,-10 -10,-19l-66 0c19,9 19,19 38,37l19 29 -28 38c-10,9 -19,19 -19,19l-10 9 57 0c0,-9 9,-19 9,-19l10 -19 9 19c10,0 10,10 10,19l66 0zm67 -76l-10 -28c0,-9 -9,-9 -9,-19l-38 0c0,10 0,10 9,19l10 28 -19 38c0,0 0,10 0,10l38 0c0,-10 9,-10 9,-19l10 -29zm66 0l-19 -28c0,-9 0,-9 0,-19l-47 0c0,10 9,10 9,19l10 28 -10 38c-9,0 -9,10 -9,10l47 0c0,-10 0,-10 0,-19l19 -29zm-2076 285l9 0c0,0 19,9 19,19 0,9 -9,19 -19,19l-9 0 0 -38zm47 47l0 -9c9,0 19,-10 19,-19 0,-19 -10,-29 -19,-29 -9,-9 -19,-9 -38,-9l-57 0c10,9 10,19 10,28l0 76c0,10 -10,19 -10,29l57 0c29,0 38,0 47,-10 10,0 19,-9 19,-28 0,-10 -9,-29 -28,-29l0 0zm-38 10c10,0 19,9 19,19 0,9 -9,19 -19,19l-9 0 0 -38 9 0zm66 -76c10,9 19,28 29,47l28 67 0 9c-9,19 -19,38 -38,48l-9 9 57 0c9,-9 19,-19 28,-38 0,-9 10,-19 19,-28l10 -48c9,-19 19,-38 28,-47l10 -19 -57 0 0 9c0,10 0,29 -10,38l-9 19 -19 -47c0,0 0,-10 0,-19l-67 0zm304 133c-10,-10 -10,-19 -10,-29l-28 -76c-10,-9 -10,-19 -10,-28l-56 0c0,0 9,9 9,9 0,10 -9,10 -9,19l-19 57c-10,29 -19,38 -29,48l48 0c0,-10 0,-19 28,-86l19 57c0,19 0,19 0,29l57 0zm47 9c19,0 29,-19 29,-28 0,-19 -10,-29 -29,-29 -9,0 -28,10 -28,29 0,9 19,28 28,28zm161 -199c10,10 10,28 10,47l0 105c0,19 0,28 -10,38l67 0c0,-19 0,-29 0,-48l0 -28c19,0 47,0 57,-10 19,-9 19,-28 19,-47 0,-29 -10,-47 -29,-57 -19,0 -28,0 -47,0l-67 0zm57 85l0 -57 10 0c9,0 28,10 28,29 0,9 0,19 -9,19 -10,9 -10,9 -29,9zm95 -28c10,9 19,28 29,47l28 67 0 9c-9,19 -28,38 -38,48l-9 9 57 0c9,-9 18,-19 28,-38 0,-9 9,-19 9,-28l19 -48c10,-19 19,-38 29,-47l9 -19 -57 0 0 9c0,10 -9,29 -9,38l-10 19 -18 -47c0,0 0,-10 0,-19l-67 0zm275 0c-19,0 -19,0 -38,0 -38,0 -76,28 -76,66 0,38 29,76 76,76 10,0 19,0 29,-9l19 -38c-19,9 -29,9 -38,9 -19,0 -38,-19 -38,-38 0,-28 19,-38 38,-38 9,0 19,0 28,10l0 -38zm19 0c10,9 10,19 10,38l0 66c0,10 -10,29 -10,29l57 0c28,0 66,-10 66,-48 0,-28 -28,-38 -57,-38l-9 10 0 -19c0,-19 0,-29 9,-38l-66 0zm57 76l0 0c9,0 19,9 19,19 0,9 -10,19 -19,19l0 0 0 -38zm142 57c0,-10 -9,-19 -9,-29l0 -28 19 28c9,10 19,19 28,29l57 0c-28,-19 -47,-38 -66,-76l19 -19c19,-19 28,-29 37,-38l-56 0c-10,9 -10,19 -19,28l-19 29 0 -19c0,-19 0,-29 9,-38l-57 0c0,9 0,19 0,38l0 57c0,9 0,28 0,38l57 0zm171 -86c-29,10 -48,19 -57,19 -10,10 -19,19 -19,38 0,19 19,38 47,38 0,0 0,0 0,0l29 -19 0 10 47 0c0,-10 0,-19 0,-29l0 -57c0,-19 -9,-38 -19,-38 -9,-9 -19,-9 -38,-9 -9,0 -19,0 -38,0l-9 38c9,-10 19,-10 28,-10 10,0 19,10 19,19l10 0zm0 29l0 28c-10,0 -10,0 -19,0 -10,0 -10,0 -10,-9 0,-10 0,-10 0,-19l29 0zm95 95c19,-19 38,-48 47,-86l-57 0c0,10 0,10 0,10 0,28 -9,57 -28,76l38 0zm303 -38l10 -38c-10,0 -19,9 -29,9l-47 0 47 -66c19,-19 19,-29 19,-57 0,-19 -9,-28 -28,-38 -10,-9 -19,-9 -29,-9 -19,0 -38,9 -47,19 -10,9 -19,18 -19,37 0,0 0,10 0,10l47 19c-9,-10 -9,-10 -9,-10 0,-19 9,-28 9,-28 10,-10 10,-10 19,-10 10,0 19,10 19,19 0,10 -9,10 -19,19l-85 124 142 0 0 0zm114 9c19,0 38,-9 57,-28 19,-19 19,-48 19,-76 0,-29 0,-48 -10,-67 -19,-28 -38,-37 -66,-37 -19,0 -38,9 -57,28 -10,19 -19,47 -19,76 0,28 0,47 19,66 9,29 28,38 57,38zm28 -104c0,38 -9,66 -28,66 -10,0 -19,-9 -19,-19 0,-19 -10,-28 -10,-47 0,-10 10,-29 10,-38 0,-19 9,-29 19,-29 19,0 19,10 28,29 0,9 0,19 0,38zm142 104c29,0 48,-9 57,-28 19,-19 29,-48 29,-76 0,-29 -10,-48 -19,-67 -19,-28 -38,-37 -67,-37 -18,0 -37,9 -56,28 -10,19 -19,47 -19,76 0,28 9,47 19,66 19,29 38,38 56,38zm29 -104c0,38 -10,66 -29,66 -9,0 -9,-9 -18,-19 0,-19 0,-28 0,-47 0,-10 0,-29 0,-38 9,-19 9,-29 18,-29 19,0 19,10 29,29 0,9 0,19 0,38zm-1972 427c19,0 38,-10 47,-29 19,-19 29,-47 29,-76 0,-28 -10,-47 -19,-66 -19,-19 -38,-38 -57,-38 -29,0 -48,9 -57,28 -19,19 -29,48 -29,76 0,29 10,57 19,67 19,28 38,38 67,38zm19 -105c0,48 -10,67 -19,67 -10,0 -19,-10 -29,-19 0,-10 0,-29 0,-48 0,-9 0,-28 0,-38 10,-19 19,-28 29,-28 9,0 19,19 19,28 0,10 0,29 0,38zm76 86c28,19 38,19 57,19 18,0 37,-10 56,-19 10,-10 19,-29 19,-48 0,-28 -28,-66 -57,-66 0,0 -9,0 -9,9l0 -38 28 0c19,0 19,0 29,0l9 -38 -123 0c10,19 10,48 10,67 0,9 0,28 0,38 9,0 19,0 28,0 10,0 28,9 28,28 0,19 -9,29 -28,29 -9,0 -19,0 -28,-10l-19 29 0 0zm246 19c19,0 38,-10 57,-29 19,-19 19,-47 19,-76 0,-28 0,-47 -19,-66 -9,-19 -28,-38 -57,-38 -19,0 -38,9 -57,28 -19,19 -19,48 -19,76 0,29 0,57 19,67 10,28 29,38 57,38zm29 -105c0,48 -10,67 -29,67 -9,0 -19,-10 -19,-19 -9,-10 -9,-29 -9,-48 0,-9 0,-28 9,-38 0,-19 10,-28 19,-28 10,0 19,19 19,28 10,10 10,29 10,38zm246 105l0 -10c0,-9 0,-9 10,-19l38 -57c9,-19 9,-38 9,-57 0,-19 0,-28 -19,-47 -9,-10 -28,-19 -47,-19 -29,0 -48,19 -67,38 0,9 -9,19 -9,28 0,38 28,57 66,67l0 0 -19 38c-9,9 -19,19 -28,38l66 0zm-38 -143c0,-9 10,-28 29,-28 9,0 28,19 28,28 0,19 -19,29 -28,29 -19,0 -29,-10 -29,-29zm133 -19c19,0 28,0 47,0l38 0 -57 133c-9,10 -9,19 -19,29l57 0 0 -10c0,0 0,0 0,-9l76 -162c0,-9 10,-9 10,-19l-143 0 -9 38 0 0zm199 57l-9 0c-10,10 -19,29 -19,38 0,38 38,67 75,67 38,0 67,-29 67,-67 0,-9 -10,-28 -19,-38l0 -9 0 0c9,-10 9,-19 9,-38 0,-10 0,-19 0,-29 -19,-19 -38,-28 -66,-28 -19,0 -28,9 -38,19 -19,9 -19,28 -19,38 0,19 0,28 10,38l9 9zm19 38c0,-9 9,-19 28,-19 10,0 19,10 19,19 0,19 -9,29 -19,29 -19,0 -28,-10 -28,-29zm47 -76c0,10 -9,19 -28,19 -10,0 -19,-9 -19,-19 0,-19 9,-28 28,-28 10,0 19,19 19,28zm190 0l38 0 0 105c0,9 -10,28 -10,38l57 0c0,-19 0,-29 0,-57l0 -152 -85 66 0 0zm180 38l-9 0c-10,10 -10,29 -10,38 0,38 29,67 67,67 37,0 66,-29 66,-67 0,-9 0,-28 -10,-38l-9 -9 9 0c10,-10 10,-19 10,-38 0,-10 0,-19 -10,-29 -9,-19 -28,-28 -56,-28 -19,0 -38,9 -48,19 -9,9 -19,28 -19,38 0,19 0,28 10,38l9 9zm19 38c0,-9 19,-19 29,-19 19,0 28,10 28,19 0,19 -9,29 -28,29 -10,0 -29,-10 -29,-29zm57 -76c0,10 -19,19 -28,19 -10,0 -29,-9 -29,-19 0,-19 19,-28 29,-28 19,0 28,19 28,28zm237 -57l0 10c-9,0 -9,9 -9,9l-29 48c-19,28 -28,38 -28,66 0,19 9,38 19,48 19,9 28,19 57,19 18,0 37,-10 47,-19 9,-10 19,-29 19,-48 0,-38 -19,-57 -57,-57 0,0 -9,0 -9,0l28 -47c9,-10 9,-19 28,-29l-66 0zm-19 133c0,-9 10,-19 19,-19 19,0 28,10 28,19 0,19 -9,29 -28,29 -9,0 -19,-10 -19,-29zm123 -95c19,0 38,0 57,0l38 0 -66 133c-10,10 -10,19 -19,29l57 0 0 -10c0,0 0,0 9,-9l67 -162c9,-9 9,-9 19,-19l-143 0 -19 38 0 0zm-1763 484c19,0 38,-10 47,-29 19,-19 29,-47 29,-66 0,-28 -10,-57 -19,-76 -19,-19 -38,-28 -57,-28 -29,0 -48,9 -57,28 -19,19 -29,38 -29,76 0,19 10,47 19,66 19,19 38,29 67,29zm19 -104c0,47 -10,66 -19,66 -10,0 -19,0 -29,-19 0,-9 0,-28 0,-47 0,-10 0,-19 0,-29 10,-28 19,-28 29,-28 9,0 19,9 19,28 0,10 0,19 0,29zm76 94c28,10 38,10 57,10 18,0 37,0 56,-19 10,-10 19,-29 19,-47 0,-29 -28,-57 -57,-57 0,0 -9,0 -9,0l0 -38 28 0c19,0 19,0 29,9l9 -47 -123 0c10,19 10,47 10,66 0,10 0,29 0,48 9,-10 19,-10 28,-10 10,0 28,10 28,29 0,18 -9,28 -28,28 -9,0 -19,0 -28,-10l-19 38 0 0zm246 10c19,0 38,-10 57,-29 19,-19 19,-47 19,-66 0,-28 0,-57 -19,-76 -9,-19 -28,-28 -57,-28 -19,0 -38,9 -57,28 -19,19 -19,38 -19,76 0,19 0,47 19,66 10,19 29,29 57,29zm29 -104c0,47 -10,66 -29,66 -9,0 -19,0 -19,-19 -9,-9 -9,-28 -9,-47 0,-10 0,-19 9,-29 0,-28 10,-28 19,-28 10,0 19,9 19,28 10,10 10,19 10,29zm303 104l9 -48c-18,10 -18,10 -37,10l-38 0 47 -66c10,-19 19,-29 19,-48 0,-19 -9,-38 -28,-47 -10,0 -29,0 -38,0 -19,0 -29,0 -38,9 -19,10 -19,29 -19,48 0,0 0,0 0,9l38 10c0,0 0,0 0,-10 0,-19 0,-19 9,-28 0,0 10,0 10,0 9,0 19,0 19,9 0,10 0,19 -10,29l-85 123 142 0 0 0zm47 -152c10,-9 19,-9 48,-9l19 0 -29 66 0 0c19,0 29,19 29,29 0,18 -10,28 -29,28 -9,0 -19,0 -28,-10l-19 29c28,19 47,19 66,19 19,0 29,0 48,-19 9,-10 19,-29 19,-47 0,-19 -10,-38 -29,-48l38 -85 -123 0 -10 47 0 0zm190 48l-9 0c-10,19 -19,28 -19,47 0,38 38,57 75,57 38,0 67,-19 67,-66 0,-10 -10,-29 -19,-38l0 0 0 -10c9,-9 9,-19 9,-28 0,-10 0,-19 0,-29 -19,-19 -38,-28 -66,-28 -19,0 -28,0 -38,9 -19,10 -19,29 -19,48 0,9 0,19 10,28l9 10zm19 47c0,-19 9,-28 28,-28 10,0 19,9 19,28 0,9 -9,19 -19,19 -19,0 -28,-10 -28,-19zm47 -85c0,9 -9,19 -28,19 -10,0 -19,-10 -19,-19 0,-10 9,-19 28,-19 10,0 19,9 19,19zm237 -57l0 9c0,0 0,10 -9,19l-29 48c-9,19 -28,38 -28,57 0,28 10,37 28,56 10,10 29,10 48,10 19,0 38,0 47,-10 19,-19 19,-38 19,-56 0,-29 -19,-57 -57,-57 0,0 0,0 -9,0l38 -48c0,-9 9,-19 19,-28l-67 0zm-19 142c0,-19 10,-28 29,-28 9,0 28,9 28,28 0,9 -9,19 -28,19 -19,0 -29,-10 -29,-19zm152 -47l-9 0c-10,19 -10,28 -10,47 0,38 29,57 67,57 37,0 66,-19 66,-66 0,-10 0,-29 -10,-38l-9 0 9 -10c10,-9 10,-19 10,-28 0,-10 0,-19 -10,-29 -9,-19 -28,-28 -56,-28 -19,0 -38,0 -48,9 -9,10 -19,29 -19,48 0,9 0,19 10,28l9 10zm19 47c0,-19 19,-28 29,-28 19,0 28,9 28,28 0,9 -9,19 -28,19 -10,0 -29,-10 -29,-19zm57 -85c0,9 -19,19 -28,19 -10,0 -29,-10 -29,-19 0,-10 19,-19 29,-19 19,0 28,9 28,19zm303 142l10 -48c-10,10 -19,10 -38,10l-38 0 47 -66c10,-19 19,-29 19,-48 0,-19 -9,-38 -28,-47 -10,0 -19,0 -28,0 -19,0 -38,0 -48,9 -9,10 -19,29 -19,48 0,0 0,0 0,9l38 10c0,0 0,0 0,-10 0,-19 0,-19 10,-28 0,0 9,0 19,0 9,0 9,0 9,9 0,10 0,19 -9,29l-86 123 142 0 0 0z"/>
   </g>
   <g>
    <path class="fil0 str0" d="M2030 1177l0 -10c0,0 10,-9 10,-19l38 -56c9,-19 19,-38 19,-48 0,-19 -10,-38 -19,-47 -19,-19 -29,-19 -57,-19 -29,0 -48,9 -57,28 -10,10 -10,19 -10,29 0,38 19,66 57,66l10 0 -29 38c-9,9 -9,19 -28,38l66 0zm-28 -142c0,-10 9,-19 19,-19 19,0 28,9 28,19 0,19 -9,28 -28,28 -10,0 -19,-9 -19,-28z"/>
    <path id="1" class="fil1" d="M2030 1177l0 -10c0,0 10,-9 10,-19l38 -56c9,-19 19,-38 19,-48 0,-19 -10,-38 -19,-47 -19,-19 -29,-19 -57,-19 -29,0 -48,9 -57,28 -10,10 -10,19 -10,29 0,38 19,66 57,66l10 0 -29 38c-9,9 -9,19 -28,38l66 0zm-28 -142c0,-10 9,-19 19,-19 19,0 28,9 28,19 0,19 -9,28 -28,28 -10,0 -19,-9 -19,-28z"/>
   </g>
  </g>
 </g>
</svg>
