<?xml version="1.0" encoding="UTF-8"?>
<!DOCTYPE svg PUBLIC "-//W3C//DTD SVG 1.1//EN" "http://www.w3.org/Graphics/SVG/1.1/DTD/svg11.dtd">
<!-- Creator: CorelDRAW X7 -->
<svg xmlns="http://www.w3.org/2000/svg" xml:space="preserve" width="877px" height="488px" version="1.1" shape-rendering="geometricPrecision" text-rendering="geometricPrecision" image-rendering="optimizeQuality" fill-rule="evenodd" clip-rule="evenodd"
viewBox="0 0 354 197"
 xmlns:xlink="http://www.w3.org/1999/xlink">
 <g id="Слой_x0020_1">
  <metadata id="CorelCorpID_0Corel-Layer"/>
  <g id="_762600000">
   <path fill="#393185" fill-rule="nonzero" d="M5 17c3,0 5,-2 5,-5 0,-3 -2,-5 -5,-5 -3,0 -5,2 -5,5 0,3 2,5 5,5zm37 5c-2,-3 -5,-6 -8,-12l2 -3c2,-3 4,-5 5,-6l-7 0c0,1 0,2 -1,3l-3 4 0 -3c0,-2 0,-3 1,-4l-7 0c0,1 0,4 0,6l0 9c0,3 0,5 0,6l7 0c-1,-2 -1,-3 -1,-4l0 -5c2,4 4,6 6,9l6 0zm16 -8c0,-4 -3,-7 -7,-7 -4,0 -8,3 -8,8 0,4 3,7 7,7 5,0 8,-3 8,-8zm-9 -4c2,0 4,2 4,5 0,2 0,3 -1,4l-1 0c-2,-1 -3,-3 -3,-5 0,-2 0,-3 1,-4zm20 -3c0,2 0,3 0,4l0 2 -3 0 0 -2c0,-1 0,-2 1,-4l-7 0c1,2 1,3 1,4l0 7c0,1 0,2 -1,4l7 0c-1,-2 -1,-3 -1,-4l0 -3 3 0 0 3c0,1 0,2 0,4l6 0c0,-2 -1,-3 -1,-4l0 -7c0,-1 1,-2 1,-4l-6 0zm7 12c1,2 2,4 4,6l0 -2c0,-1 1,-1 2,-1l6 0c-1,1 -1,2 -2,3 0,0 1,0 2,0 1,0 3,-1 4,-3 1,-2 1,-3 2,-3l-3 0 -3 -9c0,-1 -1,-2 -1,-3l-5 0c0,1 0,1 0,2 0,0 0,0 0,1l-3 6c0,1 0,2 -1,3l-2 0zm11 0l-5 0c0,-2 1,-4 2,-7l3 7zm8 -12c0,2 0,3 0,4l0 7c0,1 0,2 0,4l6 0c0,-1 -1,-1 -1,-2 0,-1 1,-2 1,-3l3 -3 0 4c0,1 0,2 -1,4l7 0c-1,-2 -1,-3 -1,-4l0 -7c0,-1 0,-2 1,-4l-7 0c1,1 1,1 1,2 0,0 0,1 -1,2l-3 4 0 -4c0,-1 0,-2 1,-4l-6 0zm28 15c-1,1 -2,2 -3,3 1,0 2,0 2,0 2,0 4,-1 5,-3 0,-2 1,-3 1,-3l-2 0 0 -8c0,-1 0,-2 1,-4l-7 0c1,2 1,3 1,4l0 8 -3 0 0 -8c0,-1 0,-2 0,-4l-6 0c1,2 1,3 1,4l0 7c0,1 0,2 -1,4l11 0zm12 -19c0,-2 -1,-3 -3,-3 -2,0 -3,1 -3,3 0,2 1,3 3,3 2,0 3,-1 3,-3zm-6 4c0,2 1,3 1,3l0 8c0,2 -1,2 -1,4l6 0c0,-1 0,-2 0,-4l0 -7c0,-1 0,-2 0,-4l-6 0zm23 7c0,-4 -3,-7 -7,-7 -4,0 -8,3 -8,8 0,4 3,7 7,7 5,0 8,-3 8,-8zm-9 -4c2,0 4,2 4,5 0,2 0,3 -1,4l-1 0c-2,-1 -3,-3 -3,-5 0,-2 0,-3 1,-4zm20 -3c0,2 1,3 1,4l0 2 -4 0 0 -2c0,-1 1,-2 1,-4l-6 0c0,2 0,3 0,4l0 7c0,1 0,2 0,4l6 0c0,-2 -1,-3 -1,-4l0 -3 4 0 0 3c0,1 -1,2 -1,4l6 0c0,-2 0,-3 0,-4l0 -7c0,-1 0,-2 0,-4l-6 0zm21 8c0,0 0,-1 0,-2 0,-2 0,-3 -1,-4 -1,-1 -3,-2 -5,-2 -2,0 -4,1 -5,2 -1,2 -2,3 -2,5 0,2 1,4 2,5 2,2 4,3 7,3 1,0 1,0 3,0l1 -5c-1,1 -2,2 -3,2 -2,0 -4,-2 -5,-4l8 0zm-4 -2l-4 0c0,-2 1,-3 2,-3 1,0 2,0 2,2l0 1zm12 -4l0 -2 -6 0c1,2 1,3 1,4l0 11c0,1 0,3 -1,4l7 0c-1,-1 -1,-2 -1,-3l0 -2 1 1c1,0 1,0 2,0 4,0 6,-4 6,-8 0,-4 -3,-7 -6,-7 0,0 0,0 -1,0l-2 2zm0 2c1,0 1,0 2,0 1,0 2,2 2,3 0,2 -1,5 -3,5 0,0 -1,-1 -1,-1l0 -7zm11 -4c1,2 1,3 1,4l0 7c0,1 0,2 -1,4l6 0c0,-1 0,-1 0,-2 0,-1 0,-2 1,-3l3 -3 0 4c0,1 0,2 -1,4l6 0c0,-2 0,-3 0,-4l0 -7c0,-1 0,-2 0,-4l-6 0c0,1 1,1 1,2 0,0 -1,1 -1,2l-3 4 0 -4c0,-1 0,-2 1,-4l-7 0zm-179 28c0,1 0,4 0,5l0 11c0,3 0,3 0,5l7 0c-1,-2 -1,-4 -1,-5l0 -3c3,0 5,-1 6,-2 2,-1 3,-3 3,-5 0,-2 -2,-4 -4,-5 -1,-1 -3,-1 -5,-1l-6 0zm6 9l0 -5 0 0c2,0 3,1 3,2 0,1 0,2 -1,3 0,0 -1,0 -2,0zm23 6c0,-1 0,-2 0,-3 0,-1 0,-3 -1,-4 -1,-1 -3,-2 -4,-2 -3,0 -4,1 -6,2 -1,2 -1,3 -1,6 0,2 0,3 1,4 2,2 4,3 7,3 1,0 2,0 3,0l2 -4c-2,1 -3,1 -4,1 -2,0 -4,-1 -4,-3l7 0zm-4 -3l-4 0c1,-2 1,-3 2,-3 1,0 2,1 2,2l0 1zm13 9c0,-1 -1,-3 -1,-3l0 -3 3 3c1,1 1,2 2,3l6 0c-3,-2 -5,-5 -7,-8l2 -2c2,-2 3,-3 4,-5l-6 0c0,1 -1,3 -2,3l-2 3 0 -2c0,-1 1,-2 1,-4l-6 0c0,2 0,3 0,4l0 6c0,2 0,3 0,5l6 0zm10 -15c1,2 2,3 3,6l3 7 -1 1c-1,2 -2,3 -4,4l-1 1 6 0c1,0 2,-2 3,-3 1,-1 1,-3 2,-4l2 -5c1,-2 1,-4 2,-5l1 -2 -6 0 0 1c0,1 0,3 -1,4l-1 3 -2 -5c0,-1 0,-2 0,-3l-6 0zm17 0c0,2 1,3 1,4l0 7c0,1 -1,3 -1,4l6 0c0,-1 0,-3 0,-4l0 -8 3 0 0 8c0,1 0,3 -1,4l6 0c0,-1 0,-3 0,-4l0 -7c0,-1 0,-2 0,-4l-14 0zm29 9c0,-1 0,-2 0,-3 0,-1 0,-3 -1,-4 -1,-1 -3,-2 -4,-2 -3,0 -4,1 -6,2 -1,2 -1,3 -1,6 0,2 0,3 1,4 2,2 4,3 7,3 1,0 2,0 3,0l1 -4c-1,1 -2,1 -3,1 -2,0 -4,-1 -4,-3l7 0zm-4 -3l-4 0c1,-2 1,-3 2,-3 1,0 2,1 2,2l0 1zm12 -4l0 -2 -6 0c1,2 1,3 1,4l0 11c0,1 0,3 -1,4l7 0c0,-1 -1,-2 -1,-3l0 -1 1 0c1,0 1,0 2,0 4,0 6,-4 6,-8 0,-4 -3,-7 -5,-7 -1,0 -1,0 -2,0l-2 2zm0 3c1,-1 2,-1 2,-1 2,0 2,2 2,4 0,1 0,4 -3,4 0,0 0,0 -1,0l0 -7zm18 1c-3,0 -4,1 -5,2 -1,1 -2,2 -2,3 0,2 2,4 4,4 0,0 1,0 1,0l2 -2 0 2 6 0c-1,-1 -1,-3 -1,-4l0 -6c0,-2 -1,-3 -2,-4 -1,-1 -2,-1 -4,-1 -1,0 -2,0 -4,1l-1 3c2,0 3,-1 4,-1 1,0 2,1 2,2l0 1zm0 3l0 3c0,0 -1,0 -1,0 -1,0 -2,-1 -2,-2 0,0 0,-1 1,-1l2 0zm17 6c0,-1 -1,-3 -1,-4l0 -8c2,0 3,1 4,1l1 -4 -13 0 -1 4c1,0 3,-1 4,-1l0 8c0,1 0,3 0,4l6 0zm20 -8c0,-4 -3,-7 -7,-7 -4,0 -8,3 -8,8 0,5 3,7 7,7 5,0 8,-3 8,-8zm-9 -4c2,0 4,2 4,5 0,2 0,3 -1,4l-1 0c-2,-1 -3,-3 -3,-5 0,-2 0,-3 1,-4zm17 -1l0 -2 -6 0c1,2 1,3 1,4l0 11c0,1 0,3 -1,4l7 0c-1,-1 -1,-2 -1,-3l0 -1 1 0c1,0 1,0 2,0 4,0 6,-4 6,-8 0,-4 -3,-7 -5,-7 -1,0 -1,0 -2,0l-2 2zm0 3c1,-1 1,-1 2,-1 1,0 2,2 2,4 0,1 0,4 -3,4 0,0 0,0 -1,0l0 -7zm11 -5c1,2 1,3 1,4l0 7c0,1 0,3 -1,4l7 0c-1,-1 -1,-1 -1,-2 0,-1 1,-1 1,-2l3 -4 0 4c0,1 0,3 -1,4l6 0c0,-1 0,-3 0,-4l0 -7c0,-1 0,-2 0,-4l-6 0c0,1 1,1 1,2 0,1 0,1 -1,2l-3 4 0 -4c0,-1 0,-2 1,-4l-7 0zm-195 10c3,0 5,-2 5,-5 0,-3 -2,-5 -5,-5 -3,0 -5,2 -5,5 0,3 2,5 5,5zm25 22l1 0c0,0 2,0 2,2 0,1 -1,2 -2,2l-1 0 0 -4zm6 6l1 -1c1,-1 2,-2 2,-4 0,-1 -1,-3 -2,-4 -2,0 -3,-1 -6,-1l-7 0c0,1 0,3 0,4l0 13c0,2 0,3 0,4l7 0c4,0 6,-1 7,-2 1,-1 2,-2 2,-4 0,-2 -1,-3 -2,-4 0,0 -1,-1 -2,-1l0 0zm-5 2c1,0 1,0 2,1 1,0 1,1 1,2 0,1 -1,2 -3,2l-1 0 0 -5 1 0zm24 3c0,-1 0,-2 0,-2 0,-2 -1,-4 -2,-5 -1,-1 -2,-2 -4,-2 -2,0 -4,1 -5,3 -1,1 -2,3 -2,5 0,2 1,3 2,5 1,2 4,2 6,2 1,0 2,0 3,0l2 -4c-2,1 -3,1 -4,1 -2,0 -3,-1 -4,-3l8 0zm-5 -3l-3 0c0,-2 0,-3 2,-3 1,0 1,1 1,2l0 1zm15 -5c1,1 1,2 1,4l0 1 -3 0 0 -1c0,-2 0,-3 0,-4l-6 0c0,1 1,2 1,4l0 6c0,2 -1,3 -1,4l6 0c0,-1 0,-2 0,-4l0 -2 3 0 0 2c0,2 0,3 -1,4l7 0c-1,-1 -1,-2 -1,-4l0 -6c0,-2 0,-3 1,-4l-7 0zm18 14c0,-1 -1,-2 -1,-4l0 -8c2,0 3,1 4,1l1 -3 -14 0 0 4c1,-1 3,-1 4,-2l0 8c0,2 0,3 0,4l6 0zm5 -14c1,1 1,2 1,4l0 6c0,2 0,3 -1,4l6 0c0,-1 0,-1 0,-2 0,0 0,-1 1,-2l3 -4 0 4c0,2 -1,3 -1,4l6 0c0,-1 -1,-2 -1,-4l0 -6c0,-2 1,-3 1,-4l-6 0c0,0 0,1 0,1 0,1 0,1 0,2l-3 4 0 -3c0,-2 0,-3 0,-4l-6 0zm32 14c-1,-2 -1,-3 -2,-4l-2 -7c-1,-1 -1,-2 -1,-3l-6 0c0,0 0,0 0,1 0,0 0,1 0,1l-2 6c-1,3 -2,5 -3,6l5 0c0,-1 0,-3 3,-9l1 5c1,2 1,3 1,4l6 0zm14 0c0,-1 0,-2 0,-4l0 -7c0,-1 0,-3 0,-3l-5 0c-4,0 -7,1 -7,4 0,2 1,3 2,4 -1,2 -2,4 -4,6l5 0c1,-1 2,-3 4,-5l0 2c0,1 -1,2 -1,3l6 0zm-5 -12l0 4 -1 0c-1,0 -2,-1 -2,-2 0,-1 1,-2 2,-2l1 0zm18 12c0,1 -1,2 -2,3 1,1 1,1 2,1 2,0 3,-1 4,-4 1,-1 1,-2 2,-3l-2 0 0 -7c0,-2 0,-3 0,-4l-6 0c0,1 1,2 1,4l0 7 -4 0 0 -7c0,-2 1,-3 1,-4l-6 0c0,1 0,2 0,4l0 6c0,2 0,3 0,4l10 0zm13 -19c0,-1 -2,-3 -3,-3 -2,0 -3,2 -3,3 0,2 1,3 3,3 1,0 3,-1 3,-3zm-7 5c1,1 1,2 1,3l0 8c0,1 0,2 -1,3l7 0c-1,-1 -1,-2 -1,-4l0 -7c0,-1 0,-2 1,-3l-7 0zm9 0c1,1 1,2 1,4l0 6c0,2 0,3 -1,4l6 0c0,-1 0,-1 0,-2 0,0 0,-1 1,-2l3 -4 0 4c0,2 -1,3 -1,4l6 0c0,-1 -1,-2 -1,-4l0 -6c0,-2 1,-3 1,-4l-6 0c0,0 0,1 0,1 0,1 0,1 0,2l-3 4 0 -3c0,-2 0,-3 0,-4l-6 0zm2 -6c1,3 3,4 6,4 2,0 4,-1 5,-4l-4 0c0,0 0,1 0,1 0,1 -1,1 -1,1 -1,0 -2,0 -2,-1 0,0 1,-1 1,-1l-5 0zm24 6c0,1 0,2 0,4l0 1 -3 0 0 -1c0,-2 0,-3 1,-4l-7 0c1,1 1,2 1,4l0 6c0,2 0,3 -1,4l7 0c-1,-1 -1,-2 -1,-4l0 -2 3 0 0 2c0,2 0,3 0,4l6 0c0,-1 -1,-2 -1,-4l0 -6c0,-2 1,-3 1,-4l-6 0zm14 -5c0,-1 -1,-3 -3,-3 -1,0 -3,2 -3,3 0,2 2,3 3,3 2,0 3,-1 3,-3zm-6 5c1,1 1,2 1,3l0 8c0,1 0,2 -1,3l7 0c-1,-1 -1,-2 -1,-4l0 -7c0,-1 0,-2 1,-3l-7 0zm17 0c1,1 2,3 3,5l3 7 0 1c-1,2 -2,3 -4,5l-1 1 6 0c1,-1 2,-3 3,-4 0,-1 1,-2 1,-4l2 -4c1,-3 2,-4 3,-6l1 -1 -6 0 0 0c0,2 -1,3 -1,4l-1 3 -2 -5c0,-1 0,-2 0,-2l-7 0zm29 0c-2,-1 -2,-1 -3,-1 -5,0 -9,3 -9,8 0,4 3,7 8,7 1,0 2,0 3,0l2 -4c-2,1 -3,1 -4,1 -2,0 -4,-2 -4,-4 0,-3 2,-4 4,-4 1,0 2,0 3,0l0 -3zm11 14c0,-1 -1,-2 -1,-4l0 -8c2,0 3,1 4,1l1 -3 -13 0 -1 4c1,-1 3,-1 4,-2l0 8c0,2 0,3 0,4l6 0zm12 -9c-3,1 -5,1 -6,2 -1,1 -1,2 -1,3 0,2 1,4 4,4 0,0 0,0 1,0l2 -1 0 1 6 0c-1,-1 -1,-2 -1,-4l0 -6c0,-2 -1,-3 -2,-4 -1,0 -2,-1 -4,-1 -1,0 -2,0 -4,1l-1 3c2,0 3,0 3,0 2,0 2,0 3,1l0 1zm0 3l0 3c-1,0 -1,0 -2,0 0,0 -1,-1 -1,-2 0,0 0,0 1,-1l2 0zm16 -8c1,1 1,2 1,4l0 1 -3 0 0 -1c0,-2 0,-3 0,-4l-6 0c0,1 1,2 1,4l0 6c0,2 -1,3 -1,4l6 0c0,-1 0,-2 0,-4l0 -2 3 0 0 2c0,2 0,3 -1,4l7 0c-1,-1 -1,-2 -1,-4l0 -6c0,-2 0,-3 1,-4l-7 0zm24 6c0,-4 -3,-7 -7,-7 -5,0 -8,3 -8,8 0,5 3,7 7,7 5,0 8,-3 8,-8zm-9 -4c2,0 4,2 4,5 0,2 -1,3 -2,4l0 0c-2,-1 -3,-3 -3,-5 0,-1 0,-3 1,-4zm16 0l1 0c1,0 2,0 2,2 0,1 -1,1 -2,1l-1 0 0 -3zm5 4l0 0c2,-1 2,-2 2,-3 0,-1 0,-2 -2,-3 -1,0 -2,0 -4,0l-6 0c1,1 1,2 1,3l0 8c0,1 0,2 -1,3l7 0c2,0 4,0 4,-1 1,-1 2,-2 2,-3 0,-2 -1,-3 -3,-4l0 0zm-4 2c1,0 2,0 2,2 0,1 -1,1 -2,1l-1 0 0 -3 1 0zm15 6c0,-1 0,-2 0,-3l0 -3 2 3c1,1 2,2 3,3l5 0c-2,-2 -4,-5 -6,-8l1 -2c2,-2 3,-3 5,-4l-7 0c0,1 -1,2 -1,2l-2 3 0 -1c0,-2 0,-3 0,-4l-6 0c0,1 1,2 1,4l0 6c0,1 -1,3 -1,4l6 0zm11 -14c1,1 1,2 1,4l0 6c0,2 0,3 -1,4l7 0c-1,-1 -1,-1 -1,-2 0,0 0,-1 1,-2l3 -4 0 4c0,2 0,3 -1,4l6 0c0,-1 0,-2 0,-4l0 -6c0,-2 0,-3 0,-4l-6 0c0,0 1,1 1,1 0,1 0,1 -1,2l-3 4 0 -3c0,-2 0,-3 1,-4l-7 0zm-334 9c3,0 5,-2 5,-5 0,-2 -2,-5 -5,-5 -3,0 -5,3 -5,5 0,3 2,5 5,5zm29 39c-1,-2 -1,-4 -1,-5l0 -12c1,0 3,0 5,1l1 -5 -16 0 -2 5c2,-1 4,-1 6,-1l0 12c0,2 0,3 0,5l7 0zm19 -6c0,-1 0,-2 0,-2 0,-2 0,-4 -1,-5 -1,-1 -3,-2 -5,-2 -2,0 -4,1 -5,3 -1,1 -2,3 -2,5 0,2 1,4 2,5 1,2 4,3 7,3 1,0 1,-1 2,-1l2 -4c-1,1 -3,1 -4,1 -2,0 -3,-1 -4,-3l8 0zm-4 -3l-4 0c0,-2 1,-3 2,-3 1,0 2,1 2,2l0 1zm6 -5c1,1 1,2 1,4l0 6c0,2 0,3 -1,4l7 0c-1,-1 -1,-2 -1,-4l0 -7 3 0 0 7c0,2 0,3 -1,4l7 0c-1,-1 -1,-2 -1,-4l0 -6c0,-2 0,-3 1,-4l-15 0zm32 14c-1,-1 -1,-2 -2,-4l-3 -7c0,-1 0,-2 -1,-3l-5 0c0,0 0,1 0,1 0,0 0,1 0,1l-2 6c-1,3 -2,5 -3,6l5 0c0,-1 0,-2 2,-9l2 5c1,2 1,3 1,4l6 0zm16 -7c0,-5 -3,-8 -7,-8 -5,0 -8,4 -8,8 0,5 3,8 7,8 5,0 8,-4 8,-8zm-9 -5c2,1 4,2 4,6 0,1 0,2 -2,4l0 -1c-2,-1 -3,-2 -3,-5 0,-1 0,-3 1,-4zm17 0l0 0c1,0 2,0 2,2 0,1 -1,1 -2,1l0 0 0 -3zm4 4l1 0c1,-1 1,-2 1,-3 0,-1 0,-2 -1,-2 -1,-1 -2,-1 -5,-1l-6 0c1,1 1,2 1,3l0 8c0,1 0,2 -1,3l7 0c3,0 4,0 5,-1 1,-1 1,-2 1,-3 0,-2 -1,-3 -3,-4l0 0zm-4 2c2,0 3,1 3,2 0,1 -1,2 -3,2l0 0 0 -4 0 0zm15 -13c0,-1 -1,-2 -3,-2 -2,0 -3,1 -3,2 0,2 1,3 3,3 2,0 3,-1 3,-3zm-6 5c0,1 0,2 0,3l0 8c0,1 0,2 0,3l6 0c0,-1 -1,-2 -1,-3l0 -8c0,-1 1,-2 1,-3l-6 0z"/>
   <path fill="#393185" fill-rule="nonzero" d="M147 110c0,1 0,2 0,4l0 1 -3 0 0 -1c0,-2 0,-3 1,-4l-7 0c1,1 1,2 1,4l0 6c0,2 0,3 -1,4l7 0c-1,-1 -1,-2 -1,-4l0 -2 3 0 0 2c0,2 0,3 0,4l6 0c-1,-1 -1,-2 -1,-4l0 -6c0,-2 0,-3 1,-4l-6 0zm15 5c-3,1 -5,2 -5,2 -2,1 -2,2 -2,3 0,3 1,5 4,5 0,0 1,-1 1,-1l2 -1 0 1 6 0c-1,-1 -1,-2 -1,-3l0 -6c0,-3 -1,-4 -2,-5 -1,0 -2,-1 -4,-1 -1,0 -2,1 -4,1l-1 3c2,0 3,0 3,0 2,0 3,0 3,1l0 1zm0 3l0 3c0,0 -1,0 -1,0 -1,0 -2,0 -2,-1 0,-1 0,-1 1,-2l2 0zm19 -8c-1,0 -2,-1 -3,-1 -5,0 -8,3 -8,8 0,4 2,8 8,8 0,0 1,-1 2,-1l2 -4c-1,1 -2,1 -3,1 -3,0 -4,-2 -4,-4 0,-3 2,-4 3,-4 1,0 2,0 3,1l0 -4zm18 7c0,-5 -3,-8 -8,-8 -4,0 -8,4 -8,8 0,5 3,8 8,8 4,0 8,-4 8,-8zm-9 -5c2,1 4,2 4,6 0,1 -1,2 -2,4l-1 -1c-2,-1 -3,-2 -3,-5 0,-1 1,-3 2,-4zm22 -2c-1,0 -2,-1 -3,-1 -5,0 -8,3 -8,8 0,4 2,8 7,8 1,0 2,-1 3,-1l2 -4c-1,1 -3,1 -4,1 -2,0 -3,-2 -3,-4 0,-3 1,-4 3,-4 1,0 2,0 3,1l0 -4zm2 0c1,1 1,2 1,4l0 6c0,2 0,3 -1,4l7 0c-1,0 -1,-1 -1,-1 0,-1 1,-2 1,-3l3 -4 0 4c0,2 0,3 -1,4l7 0c-1,-1 -1,-2 -1,-4l0 -6c0,-2 0,-3 1,-4l-7 0c1,0 1,1 1,1 0,1 0,1 -1,2l-3 4 0 -3c0,-2 0,-3 1,-4l-7 0zm-209 9c3,0 5,-2 5,-5 0,-2 -2,-4 -5,-4 -3,0 -5,2 -5,4 0,3 2,5 5,5zm29 40c5,0 9,-2 11,-7 0,-1 0,-3 0,-4 0,-6 -4,-11 -11,-11 -4,0 -11,2 -11,11 0,7 5,11 11,11zm-3 -17c1,-1 1,-1 2,-1 4,0 7,4 7,8 0,2 -1,4 -3,6l-1 0c-3,0 -7,-3 -7,-8 0,-2 0,-4 2,-5zm17 2c0,1 0,2 0,4l0 6c0,2 0,3 0,4l6 0c0,-1 -1,-2 -1,-4l0 -7 4 0 0 7c0,2 0,3 -1,4l6 0c0,-1 0,-2 0,-4l0 -6c0,-2 0,-3 0,-4l-14 0zm23 5c-3,1 -4,2 -5,2 -1,1 -2,2 -2,4 0,2 2,4 4,4 1,0 1,0 1,0l3 -2 0 1 5 0c0,-1 -1,-2 -1,-3l0 -6c0,-2 0,-4 -1,-4 -1,-1 -3,-1 -4,-1 -1,0 -2,0 -4,0l-1 4c1,-1 2,-1 3,-1 1,0 2,0 2,1l0 1zm0 3l0 3c0,0 0,0 -1,0 -1,0 -1,0 -1,-1 0,-1 0,-1 0,-2l2 0zm23 6c-1,-1 -1,-2 -2,-3l-2 -8c-1,-1 -1,-2 -1,-3l-6 0c0,0 0,1 0,1 0,1 0,1 0,2l-2 6c-1,2 -2,4 -3,5l5 0c0,-1 0,-2 3,-9l1 6c1,1 1,2 1,3l6 0zm7 -9l0 -1c0,-2 0,-3 1,-4l-7 0c1,1 1,2 1,4l0 6c0,2 0,3 -1,4l7 0c-1,-1 -1,-2 -1,-4l0 -2 2 0c0,4 3,7 7,7 5,0 8,-4 8,-8 0,-5 -3,-7 -7,-7 -4,0 -7,2 -8,5l-2 0zm8 -2c2,0 4,1 4,5 0,2 -1,3 -2,4l0 -1c-2,0 -3,-2 -3,-5 0,-1 0,-2 1,-3zm16 -1l1 0c0,0 2,1 2,2 0,1 -1,2 -2,2l-1 0 0 -4zm5 4l0 0c1,0 2,-1 2,-3 0,-1 -1,-2 -2,-2 -1,-1 -2,-1 -4,-1l-6 0c1,1 1,2 1,3l0 8c0,1 0,2 -1,3l6 0c3,0 4,0 5,-1 1,0 2,-2 2,-3 0,-2 -1,-3 -3,-4l0 0zm-4 2c1,0 2,1 2,2 0,1 -1,2 -2,2l-1 0 0 -4 1 0zm15 -3c-3,1 -4,2 -5,2 -1,1 -2,2 -2,4 0,2 2,4 4,4 1,0 1,0 1,0l3 -2 0 1 5 0c0,-1 -1,-2 -1,-3l0 -6c0,-2 0,-4 -1,-4 -1,-1 -3,-1 -4,-1 -1,0 -2,0 -4,0l-1 4c1,-1 2,-1 3,-1 1,0 2,0 2,1l0 1zm0 3l0 3c0,0 0,0 -1,0 -1,0 -1,0 -1,-1 0,-1 0,-1 0,-2l2 0zm23 6c-1,-1 -1,-2 -2,-3l-2 -8c-1,-1 -1,-2 -1,-3l-6 0c0,0 0,1 0,1 0,1 0,1 0,2l-2 6c-1,2 -2,4 -3,5l5 0c0,-1 0,-2 3,-9l1 6c1,1 1,2 1,3l6 0zm1 -14c1,1 1,2 1,4l0 7c0,1 0,3 -1,3l6 0c3,0 7,-1 7,-5 0,-3 -3,-4 -6,-4l-1 1 0 -2c0,-2 0,-3 1,-4l-7 0zm6 8l0 0c2,0 2,1 2,2 0,1 -1,2 -2,2l0 0 0 -4zm17 -8c0,1 1,2 1,4l0 1 -4 0 0 -1c0,-2 1,-3 1,-4l-6 0c0,1 0,2 0,4l0 6c0,2 0,3 0,4l6 0c0,-1 -1,-2 -1,-4l0 -2 4 0 0 2c0,2 -1,3 -1,4l6 0c0,-1 0,-2 0,-4l0 -6c0,-2 0,-3 0,-4l-6 0zm15 5c-3,1 -4,2 -5,2 -1,1 -2,2 -2,4 0,2 2,4 4,4 1,0 1,0 1,0l2 -2 0 1 6 0c0,-1 -1,-2 -1,-3l0 -6c0,-2 0,-4 -1,-4 -1,-1 -3,-1 -4,-1 -1,0 -3,0 -4,0l-1 4c1,-1 2,-1 3,-1 1,0 2,0 2,1l0 1zm0 3l0 3c0,0 -1,0 -1,0 -1,0 -1,0 -1,-1 0,-1 0,-1 0,-2l2 0zm28 6c-1,-1 -1,-2 -1,-4l0 -7c1,0 3,0 4,1l0 -4 -13 0 -1 4c1,-1 3,-1 5,-1l0 7c0,2 0,3 -1,4l7 0zm17 -6c0,-1 0,-1 0,-2 0,-2 -1,-3 -1,-5 -2,-1 -3,-1 -5,-1 -2,0 -4,1 -5,2 -1,1 -2,3 -2,5 0,2 1,4 2,5 1,2 4,3 7,3 0,0 1,0 2,-1l2 -4c-2,1 -3,1 -4,1 -2,0 -3,-1 -4,-3l8 0zm-4 -3l-4 0c0,-2 1,-2 2,-2 1,0 2,0 2,2l0 0zm22 9c-1,-1 -2,-2 -3,-3l-3 -5 2 -3c1,-1 2,-2 4,-3l-6 0c-1,1 -1,1 -1,2l-1 2 -1 -2c-1,-1 -1,-1 -1,-2l-7 0c2,1 2,2 4,4l2 3 -3 4c-1,1 -2,2 -2,2l-1 1 6 0c0,-1 1,-2 1,-2l1 -2 1 2c1,1 1,1 1,2l7 0zm10 -14c0,1 0,2 0,4l0 1 -3 0 0 -1c0,-2 0,-3 1,-4l-7 0c1,1 1,2 1,4l0 6c0,2 0,3 -1,4l7 0c-1,-1 -1,-2 -1,-4l0 -2 3 0 0 2c0,2 0,3 0,4l6 0c-1,-1 -1,-2 -1,-4l0 -6c0,-2 0,-3 1,-4l-6 0zm14 -4c0,-2 -1,-3 -3,-3 -1,0 -3,1 -3,3 0,1 2,2 3,2 2,0 3,-1 3,-2zm-6 4c1,1 1,2 1,3l0 8c0,1 -1,2 -1,3l6 0c0,-1 0,-1 0,-3l0 -7c0,-1 0,-3 0,-4l-6 0zm15 14c0,-1 -1,-2 -1,-3l0 -3 2 3c1,1 2,2 3,3l6 0c-3,-2 -5,-5 -7,-8l2 -2c2,-2 3,-3 4,-4l-6 0c-1,1 -1,2 -2,3l-2 2 0 -1c0,-2 0,-3 1,-4l-6 0c0,1 0,2 0,4l0 6c0,1 0,3 0,4l6 0zm17 -9c-2,1 -4,2 -5,2 -1,1 -2,2 -2,4 0,2 2,4 4,4 1,0 1,0 1,0l3 -2 0 1 5 0c0,-1 0,-2 0,-3l0 -6c0,-2 -1,-4 -2,-4 -1,-1 -3,-1 -4,-1 -1,0 -2,0 -4,0l-1 4c1,-1 2,-1 3,-1 1,0 2,0 2,1l0 1zm1 3l0 3c-1,0 -1,0 -2,0 -1,0 -1,0 -1,-1 0,-1 0,-1 0,-2l3 0zm-312 2c3,0 5,-3 5,-5 0,-3 -2,-5 -5,-5 -3,0 -5,2 -5,5 0,2 2,5 5,5zm34 39c-1,-2 -1,-3 -1,-5l0 -7c1,0 3,0 4,1l0 -4 -13 0 -1 4c1,-1 3,-1 5,-1l0 7c0,2 0,3 -1,5l7 0zm11 -10c-3,1 -4,2 -5,2 -1,1 -2,2 -2,4 0,2 2,4 4,4 0,0 1,0 1,0l2 -2 0 2 6 0c-1,-2 -1,-3 -1,-4l0 -6c0,-2 0,-3 -2,-4 -1,-1 -2,-1 -3,-1 -1,0 -3,0 -5,0l0 4c1,-1 2,-1 3,-1 1,0 2,1 2,2l0 0zm0 4l0 2c0,0 -1,0 -1,0 -1,0 -2,0 -2,-1 0,0 0,-1 1,-1l2 0zm25 6c-1,-2 -1,-3 -1,-4l0 -2 2 2c1,2 2,3 3,4l5 0c-2,-3 -4,-5 -6,-9l2 -2c1,-1 2,-3 4,-4l-7 0c0,1 0,2 -1,3l-2 3 0 -2c0,-1 0,-3 1,-4l-7 0c1,1 1,3 1,4l0 6c0,2 0,3 -1,5l7 0zm26 -8c0,-4 -3,-7 -7,-7 -5,0 -9,3 -9,8 0,4 4,7 8,7 4,0 8,-4 8,-8zm-9 -4c2,0 4,2 4,5 0,2 -1,3 -2,4l0 0c-2,-1 -3,-3 -3,-6 0,-1 0,-2 1,-3zm29 12c-1,-2 -1,-3 -1,-5l0 -6c0,-1 1,-2 1,-4l-5 0c0,0 0,1 -1,1l-3 5 -4 -5c0,0 0,-1 0,-1l-6 0 2 3 0 7c0,2 0,3 -1,5l6 0c-1,-2 -1,-3 -1,-5l0 -3 3 5 4 -5 0 3c0,2 0,3 -1,5l7 0zm3 -15c0,1 0,3 0,4l0 6c0,2 0,3 0,5l6 0c0,-2 -1,-3 -1,-5l0 -7 4 0 0 7c0,2 -1,3 -1,5l6 0c0,-2 0,-3 0,-5l0 -6c0,-1 0,-3 0,-4l-14 0zm31 15c-1,-2 -1,-3 -1,-4l-3 -8c-1,-1 -1,-2 -1,-3l-6 0c1,1 1,1 1,1 0,1 0,1 -1,2l-2 6c-1,3 -2,4 -3,6l5 0c0,-2 1,-3 3,-9l2 5c0,2 0,2 0,4l6 0zm14 -7c0,-1 0,-1 0,-2 0,-2 -1,-3 -1,-4 -2,-2 -3,-2 -5,-2 -2,0 -4,1 -5,2 -1,1 -2,3 -2,5 0,2 1,4 2,5 1,2 4,3 7,3 0,0 1,0 2,0l2 -5c-2,1 -3,1 -4,1 -2,0 -3,-1 -4,-3l8 0zm-4 -3l-4 0c0,-2 1,-2 2,-2 1,0 2,0 2,2l0 0zm13 10c-1,-2 -1,-3 -1,-4l0 -2 2 2c1,2 2,3 3,4l5 0c-2,-3 -4,-5 -6,-9l2 -2c1,-1 2,-3 4,-4l-7 0c0,1 -1,2 -1,3l-2 3 0 -2c0,-1 0,-3 1,-4l-7 0c1,1 1,3 1,4l0 6c0,2 0,3 -1,5l7 0zm20 0c-1,-2 -1,-3 -1,-5l0 -7c1,0 3,0 4,1l0 -4 -13 0 -1 4c1,-1 3,-1 5,-1l0 7c0,2 0,3 -1,5l7 0zm3 -15c1,1 2,3 3,5l3 8 0 1c-1,1 -3,3 -4,4l-1 1 5 0c2,-1 3,-2 3,-4 1,-1 2,-2 2,-3l2 -5c1,-2 2,-4 3,-5l0 -2 -5 0 0 1c0,1 -1,3 -1,4l-1 3 -2 -5c0,-1 -1,-2 -1,-3l-6 0zm23 5l0 -1c0,-1 0,-3 1,-4l-7 0c1,1 1,3 1,4l0 6c0,2 0,3 -1,5l7 0c-1,-2 -1,-3 -1,-5l0 -2 2 0c0,4 3,7 7,7 5,0 8,-4 8,-8 0,-4 -3,-7 -7,-7 -4,0 -7,2 -8,5l-2 0zm8 -2c2,0 4,2 4,5 0,2 -1,3 -2,4l0 0c-2,-1 -3,-3 -3,-6 0,-1 0,-2 1,-3zm19 -3c0,1 1,3 1,4l0 2c-1,1 -1,1 -2,1 -1,0 -2,0 -2,-2l0 -1c0,-2 1,-3 1,-4l-6 0c0,1 0,3 0,4l0 1c0,4 3,5 5,5 1,0 1,0 2,0l2 -2 0 2c0,2 -1,3 -1,5l6 0c0,-2 0,-3 0,-5l0 -6c0,-1 0,-3 0,-4l-6 0zm15 -4c0,-2 -2,-3 -3,-3 -2,0 -3,1 -3,3 0,2 1,3 3,3 1,0 3,-2 3,-3zm-7 4c1,1 1,3 1,3l0 8c0,1 0,2 -1,4l7 0c-1,-1 -1,-2 -1,-4l0 -7c0,-1 0,-3 1,-4l-7 0z"/>
  </g>
 </g>
</svg>
