<?xml version="1.0" encoding="UTF-8"?>
<!DOCTYPE svg PUBLIC "-//W3C//DTD SVG 1.1//EN" "http://www.w3.org/Graphics/SVG/1.1/DTD/svg11.dtd">
<!-- Creator: CorelDRAW X7 -->
<svg xmlns="http://www.w3.org/2000/svg" xml:space="preserve" width="780px" height="312px" version="1.1" style="shape-rendering:geometricPrecision; text-rendering:geometricPrecision; image-rendering:optimizeQuality; fill-rule:evenodd; clip-rule:evenodd"
viewBox="0 0 780 312"
 xmlns:xlink="http://www.w3.org/1999/xlink">
 <defs>
  <style type="text/css">
   <![CDATA[
    .str0 {stroke:#FEFEFE;stroke-width:2.3635;stroke-linecap:round;stroke-linejoin:round}
    .fil0 {fill:#2B2A29;fill-rule:nonzero}
   ]]>
  </style>
 </defs>
 <g id="Слой_x0020_1">
  <metadata id="CorelCorpID_0Corel-Layer"/>
  <path class="fil0 str0" d="M46 114l23 0 -30 -60 30 -45 -23 0 -15 30 -7 7 0 -37 -23 0 0 105 23 0 0 -30 7 -15 15 45zm53 0c23,0 31,-15 31,-30l0 -22c0,-16 -8,-31 -31,-31 -15,0 -22,15 -22,31l0 22c0,15 7,30 22,30zm0 -22c0,0 -7,0 -7,-8l0 -22c0,-8 7,-8 7,-8 8,0 8,0 8,8l0 22c0,8 0,8 -8,8zm76 -61l0 31 -15 0 0 -31 -15 0 0 83 15 0 0 -30 15 0 0 30 15 0 0 -83 -15 0zm22 99l23 0 0 -16 38 0 0 16 15 0 0 -38 -8 0 0 -61 -52 0c0,15 0,31 0,46 0,7 0,15 -8,15l-8 0 0 38 0 0zm31 -38c0,0 7,-8 7,-15 0,-8 0,-15 0,-23l8 0 0 38 -15 0 0 0zm53 22l22 0 0 -15c8,-7 15,-30 15,-37l0 0c0,15 0,22 0,30l0 22 15 0 0 -83 -15 0 -7 15c0,8 -8,31 -8,31l0 0c0,-8 0,-15 0,-23l0 -23 -22 0 0 83 0 0zm113 16l15 0 0 -38 -8 0 0 -61 -15 0 0 61 -15 0 0 -61 -23 0 0 83 46 0 0 16 0 0zm38 -106c7,0 7,-8 7,-15 0,0 0,-8 -7,-8 -8,0 -8,8 -8,8 0,7 0,15 8,15zm-8 90l15 0 0 -83 -15 0 0 83zm60 0c15,0 31,-15 31,-30l0 -22c0,-16 -16,-31 -31,-31 -22,0 -30,15 -30,31l0 22c0,15 8,30 30,30zm0 -22c-7,0 -7,0 -7,-8l0 -22c0,-8 0,-8 7,-8 0,0 8,0 8,8l0 22c0,8 -8,8 -8,8zm68 -61l0 31 -7 0 0 -31 -23 0 0 83 23 0 0 -30 7 0 0 30 23 0 0 -83 -23 0zm68 53c0,8 0,8 -7,8 0,0 -8,0 -8,-8l0 -7 38 0 0 -15c0,-16 -8,-31 -30,-31 -15,0 -23,15 -23,31l0 22c0,15 8,30 23,30 15,0 30,-15 30,-30l-23 0zm-7 -30c7,0 7,0 7,8l0 7 -15 0 0 -7c0,-8 8,-8 8,-8l0 0zm75 -23c-7,0 -15,8 -22,8l0 -8 -8 0 0 106 15 0 0 -30c8,7 8,7 15,7 15,0 23,-15 23,-30l0 -22c0,-16 -8,-31 -23,-31l0 0zm0 53c0,8 0,8 -7,8 0,0 -8,0 -8,-8l0 -22c0,-8 8,-8 8,-8 7,0 7,0 7,8l0 22zm38 30l15 0 8 -15c0,-7 7,-30 7,-37l8 0c-8,15 -8,22 -8,30l0 22 23 0 0 -83 -23 0 0 15c-7,8 -15,31 -15,31l0 0c0,-8 0,-15 0,-23l0 -23 -15 0 0 83 0 0z"/>
  <path class="fil0 str0" d="M31 182l-30 0 0 99 23 0 0 -31 7 0c23,0 31,-15 31,-30 0,-23 -8,-38 -31,-38l0 0zm0 53l-7 0 0 -30 7 0c8,0 15,0 15,15 0,8 -7,15 -15,15l0 0zm76 23c0,7 0,7 -8,7 -7,0 -7,0 -7,-7l0 -8 38 0 0 -15c0,-15 -16,-30 -31,-30 -15,0 -30,15 -30,30l0 23c0,15 15,30 30,30 15,0 31,-15 31,-30l-23 0zm-8 -30c8,0 8,0 8,7l0 8 -15 0 0 -8c0,-7 0,-7 7,-7l0 0zm76 53l22 0 -22 -38 22 -38 -22 0 -8 15c0,8 -7,15 -7,15l0 -30 -23 0 0 76 23 0 0 -23 0 0 15 23 0 0zm68 -76l-8 45 -15 -45 -23 0 31 68 -8 8c0,7 0,15 -7,15l-8 0 0 15 15 0c8,0 15,-8 23,-23l22 -83 -22 0 0 0zm83 0l-53 0 0 76 15 0 0 -53 15 0 0 53 23 0 0 -76 0 0zm45 53c0,7 0,7 -7,7 -8,0 -8,0 -8,-7l0 -8 38 0 0 -15c0,-15 -15,-30 -30,-30 -16,0 -31,15 -31,30l0 23c0,15 15,30 31,30 15,0 30,-15 30,-30l-23 0zm-7 -30c7,0 7,0 7,7l0 8 -15 0 0 -8c0,-7 0,-7 8,-7l0 0zm68 -23c0,0 -8,8 -16,8l0 -8 -15 0 0 106 23 0 0 -30c0,7 8,7 8,7 15,0 30,-15 30,-30l0 -23c0,-15 -15,-30 -30,-30l0 0zm7 53c0,7 0,7 -7,7 -8,0 -8,0 -8,-7l0 -23c0,-7 0,-7 8,-7 7,0 7,0 7,7l0 23zm60 -53c-15,0 -30,8 -30,30l23 0c0,-7 0,-7 7,-7 8,0 8,0 8,7l0 0 -8 0c-15,0 -30,8 -30,30 0,8 8,23 23,23 7,0 15,-7 15,-7l0 0 15 0 0 -46c0,-22 -7,-30 -23,-30l0 0zm8 53c0,7 -8,15 -8,15 -7,0 -7,-8 -7,-8 0,-7 0,-7 7,-7l8 0 0 0 0 0zm76 -53l-53 0 0 23 15 0 0 53 22 0 0 -53 16 0 0 -23 0 0zm30 83c22,0 30,-15 30,-30l0 -23c0,-15 -8,-30 -30,-30 -15,0 -23,15 -23,30l0 23c0,15 8,30 23,30zm0 -23c0,0 -8,0 -8,-7l0 -23c0,-7 8,-7 8,-7 7,0 15,0 15,7l0 23c0,7 -8,7 -15,7zm75 -60c-7,0 -15,8 -15,8l0 -8 -15 0 0 106 15 0 0 -30c8,7 8,7 15,7 15,0 23,-15 23,-30l0 -23c0,-15 -8,-30 -23,-30zm8 53c0,7 -8,7 -8,7 -7,0 -15,0 -15,-7l0 -23c0,-7 8,-7 15,-7 0,0 8,0 8,7l0 23zm30 23l23 0 0 -8c7,-8 15,-30 15,-38l0 0c0,15 0,23 0,30l0 16 15 0 0 -76 -15 0 -8 15c-7,8 -7,30 -15,30l0 0c0,-7 0,-15 0,-22l0 -23 -15 0 0 76 0 0z"/>
 </g>
</svg>
