<?xml version="1.0" encoding="UTF-8"?>
<!DOCTYPE svg PUBLIC "-//W3C//DTD SVG 1.1//EN" "http://www.w3.org/Graphics/SVG/1.1/DTD/svg11.dtd">
<!-- Creator: CorelDRAW X7 -->
<svg xmlns="http://www.w3.org/2000/svg" xml:space="preserve" width="249px" height="99px" version="1.1" shape-rendering="geometricPrecision" text-rendering="geometricPrecision" image-rendering="optimizeQuality" fill-rule="evenodd" clip-rule="evenodd"
viewBox="0 0 103 41"
 xmlns:xlink="http://www.w3.org/1999/xlink">
 <g id="Слой_x0020_1">
  <metadata id="CorelCorpID_0Corel-Layer"/>
  <path fill="#393185" fill-rule="nonzero" d="M6 15l3 0 -4 -8 4 -6 -3 0 -2 4 -1 1 0 -5 -3 0 0 14 3 0 0 -4 1 -2 2 6zm7 0c3,0 4,-2 4,-4l0 -3c0,-2 -1,-4 -4,-4 -2,0 -3,2 -3,4l0 3c0,2 1,4 3,4zm0 -3c0,0 -1,0 -1,-1l0 -3c0,-1 1,-1 1,-1 1,0 1,0 1,1l0 3c0,1 0,1 -1,1zm10 -8l0 4 -2 0 0 -4 -2 0 0 11 2 0 0 -4 2 0 0 4 2 0 0 -11 -2 0zm3 13l3 0 0 -2 5 0 0 2 2 0 0 -5 -1 0 0 -8 -7 0c0,2 0,4 0,6 0,1 0,2 -1,2l-1 0 0 5zm4 -5c0,0 1,-1 1,-2 0,-1 0,-2 0,-3l1 0 0 5 -2 0zm7 3l3 0 0 -2c1,-1 2,-4 2,-5l0 0c0,2 0,3 0,4l0 3 2 0 0 -11 -2 0 -1 2c0,1 -1,4 -1,4l0 0c0,-1 0,-2 0,-3l0 -3 -3 0 0 11zm15 2l2 0 0 -5 -1 0 0 -8 -2 0 0 8 -2 0 0 -8 -3 0 0 11 6 0 0 2zm5 -14c1,0 1,-1 1,-2 0,0 0,-1 -1,-1 -1,0 -1,1 -1,1 0,1 0,2 1,2zm-1 12l2 0 0 -11 -2 0 0 11zm8 0c2,0 4,-2 4,-4l0 -3c0,-2 -2,-4 -4,-4 -3,0 -4,2 -4,4l0 3c0,2 1,4 4,4zm0 -3c-1,0 -1,0 -1,-1l0 -3c0,-1 0,-1 1,-1 0,0 1,0 1,1l0 3c0,1 -1,1 -1,1zm9 -8l0 4 -1 0 0 -4 -3 0 0 11 3 0 0 -4 1 0 0 4 3 0 0 -11 -3 0zm9 7c0,1 0,1 -1,1 0,0 -1,0 -1,-1l0 -1 5 0 0 -2c0,-2 -1,-4 -4,-4 -2,0 -3,2 -3,4l0 3c0,2 1,4 3,4 2,0 4,-2 4,-4l-3 0zm-1 -4c1,0 1,0 1,1l0 1 -2 0 0 -1c0,-1 1,-1 1,-1zm10 -3c-1,0 -2,1 -3,1l0 -1 -1 0 0 14 2 0 0 -4c1,1 1,1 2,1 2,0 3,-2 3,-4l0 -3c0,-2 -1,-4 -3,-4zm0 7c0,1 0,1 -1,1 0,0 -1,0 -1,-1l0 -3c0,-1 1,-1 1,-1 1,0 1,0 1,1l0 3zm5 4l2 0 1 -2c0,-1 1,-4 1,-5l1 0c-1,2 -1,3 -1,4l0 3 3 0 0 -11 -3 0 0 2c-1,1 -2,4 -2,4l0 0c0,-1 0,-2 0,-3l0 -3 -2 0 0 11z"/>
  <path fill="#393185" fill-rule="nonzero" d="M4 24l-4 0 0 13 3 0 0 -4 1 0c3,0 4,-2 4,-4 0,-3 -1,-5 -4,-5zm0 7l-1 0 0 -4 1 0c1,0 2,0 2,2 0,1 -1,2 -2,2zm10 3c0,1 0,1 -1,1 -1,0 -1,0 -1,-1l0 -1 5 0 0 -2c0,-2 -2,-4 -4,-4 -2,0 -4,2 -4,4l0 3c0,2 2,4 4,4 2,0 4,-2 4,-4l-3 0zm-1 -4c1,0 1,0 1,1l0 1 -2 0 0 -1c0,-1 0,-1 1,-1zm10 7l3 0 -3 -5 3 -5 -3 0 -1 2c0,1 -1,2 -1,2l0 -4 -3 0 0 10 3 0 0 -3 0 0 2 3zm9 -10l-1 6 -2 -6 -3 0 4 9 -1 1c0,1 0,2 -1,2l-1 0 0 2 2 0c1,0 2,-1 3,-3l3 -11 -3 0zm11 0l-7 0 0 10 2 0 0 -7 2 0 0 7 3 0 0 -10zm6 7c0,1 0,1 -1,1 -1,0 -1,0 -1,-1l0 -1 5 0 0 -2c0,-2 -2,-4 -4,-4 -2,0 -4,2 -4,4l0 3c0,2 2,4 4,4 2,0 4,-2 4,-4l-3 0zm-1 -4c1,0 1,0 1,1l0 1 -2 0 0 -1c0,-1 0,-1 1,-1zm9 -3c0,0 -1,1 -2,1l0 -1 -2 0 0 14 3 0 0 -4c0,1 1,1 1,1 2,0 4,-2 4,-4l0 -3c0,-2 -2,-4 -4,-4zm1 7c0,1 0,1 -1,1 -1,0 -1,0 -1,-1l0 -3c0,-1 0,-1 1,-1 1,0 1,0 1,1l0 3zm8 -7c-2,0 -4,1 -4,4l3 0c0,-1 0,-1 1,-1 1,0 1,0 1,1l0 0 -1 0c-2,0 -4,1 -4,4 0,1 1,3 3,3 1,0 2,-1 2,-1l0 0 2 0 0 -6c0,-3 -1,-4 -3,-4zm1 7c0,1 -1,2 -1,2 -1,0 -1,-1 -1,-1 0,-1 0,-1 1,-1l1 0 0 0zm10 -7l-7 0 0 3 2 0 0 7 3 0 0 -7 2 0 0 -3zm4 11c3,0 4,-2 4,-4l0 -3c0,-2 -1,-4 -4,-4 -2,0 -3,2 -3,4l0 3c0,2 1,4 3,4zm0 -3c0,0 -1,0 -1,-1l0 -3c0,-1 1,-1 1,-1 1,0 2,0 2,1l0 3c0,1 -1,1 -2,1zm10 -8c-1,0 -2,1 -2,1l0 -1 -2 0 0 14 2 0 0 -4c1,1 1,1 2,1 2,0 3,-2 3,-4l0 -3c0,-2 -1,-4 -3,-4zm1 7c0,1 -1,1 -1,1 -1,0 -2,0 -2,-1l0 -3c0,-1 1,-1 2,-1 0,0 1,0 1,1l0 3zm4 3l3 0 0 -1c1,-1 2,-4 2,-5l0 0c0,2 0,3 0,4l0 2 2 0 0 -10 -2 0 -1 2c-1,1 -1,4 -2,4l0 0c0,-1 0,-2 0,-3l0 -3 -2 0 0 10z"/>
 </g>
</svg>
