<?xml version="1.0" encoding="UTF-8"?>
<!DOCTYPE svg PUBLIC "-//W3C//DTD SVG 1.1//EN" "http://www.w3.org/Graphics/SVG/1.1/DTD/svg11.dtd">
<!-- Creator: CorelDRAW X7 -->
<svg xmlns="http://www.w3.org/2000/svg" xml:space="preserve" width="842px" height="431px" version="1.1" style="shape-rendering:geometricPrecision; text-rendering:geometricPrecision; image-rendering:optimizeQuality; fill-rule:evenodd; clip-rule:evenodd"
viewBox="0 0 842 432"
 xmlns:xlink="http://www.w3.org/1999/xlink">
 <defs>
  <style type="text/css">
   <![CDATA[
    .str0 {stroke:#FEFEFE;stroke-width:0.900507}
    .fil0 {fill:#2B2A29;fill-rule:nonzero}
   ]]>
  </style>
 </defs>
 <g id="Слой_x0020_1">
  <metadata id="CorelCorpID_0Corel-Layer"/>
  <path class="fil0 str0" d="M115 61c7,-7 7,-13 7,-20 0,-20 -14,-34 -27,-34l-34 0 0 101 34 0c20,0 33,-13 33,-27 0,-13 -6,-20 -13,-20zm-20 -34c6,0 6,7 6,14 0,7 0,7 -6,7l-7 0 0 -21 7 0zm0 61l-7 0 0 -20 7 0c6,0 6,6 6,13 0,7 0,7 -6,7zm74 0c0,0 0,7 -7,7 -7,0 -7,-7 -7,-14l0 0 34 0 0 -20c0,-20 -7,-27 -27,-27 -14,0 -27,7 -27,27l0 20c0,20 13,34 27,34 20,0 27,-14 27,-27l-20 0 0 0zm-7 -40c7,0 7,6 7,13l0 7 -14 0 0 -7c0,-7 0,-13 7,-13zm74 -14l0 27 -13 0 0 -27 -21 0 0 74 21 0 0 -27 13 0 0 27 20 0 0 -74 -20 0zm81 0l-54 0 0 20 20 0 0 54 14 0 0 -54 20 0 0 -20 0 0zm6 74l21 0 6 -13c0,-7 7,-27 7,-34l7 0c-7,13 -7,27 -7,34l0 13 20 0 0 -74 -20 0 0 14c-7,6 -13,26 -13,33l0 0c0,-13 0,-20 0,-27l0 -20 -21 0 0 74zm61 0c20,0 27,-7 27,-27 7,-7 7,-20 7,-27l6 0 0 54 21 0 0 -74 -48 0c0,14 0,40 0,47 -6,7 -6,14 -13,14l0 13 0 0zm101 -74c-14,0 -27,7 -27,27 0,13 7,20 13,20l-13 27 20 0 7 -20 7 0 0 20 20 0 0 -74 -27 0 0 0zm7 34l-7 0c-7,0 -7,0 -7,-7 0,-7 0,-13 7,-13l7 0 0 20zm74 60l20 0 0 -33 -7 0 0 -61 -20 0 0 61 -14 0 0 -61 -20 0 0 74 41 0 0 20 0 0zm40 -107c7,0 7,-7 7,-7 0,-7 0,-14 -7,-14 -7,0 -13,7 -13,14 0,7 6,7 13,7zm-13 87l20 0 0 -74 -20 0 0 74zm67 -87c7,0 13,-7 13,-21l-13 0c0,7 0,7 0,7 -7,0 -7,0 -7,-7l-13 0c0,14 6,21 20,21zm-34 87l20 0 7 -13c7,-7 14,-27 14,-34l0 0c0,13 0,27 0,34l0 13 20 0 0 -74 -20 0 -7 14c-7,6 -14,26 -14,33l0 0c0,-13 0,-20 0,-27l0 -20 -20 0 0 74zm108 -74l0 27 -14 0 0 -27 -20 0 0 74 20 0 0 -27 14 0 0 27 20 0 0 -74 -20 0zm40 -13c7,0 14,-7 14,-7 0,-7 -7,-14 -14,-14 -6,0 -6,7 -6,14 0,7 0,7 6,7zm-6 87l20 0 0 -74 -20 0 0 74z"/>
  <path class="fil0 str0" d="M175 182l-6 41 -14 -41 -20 0 20 67 0 7c0,7 0,7 -7,7l-6 0 0 20 6 0c14,0 21,-7 27,-20l21 -81 -21 0 0 0zm54 74c20,0 27,-7 27,-27l-20 0c0,7 0,14 -7,14 -7,0 -7,-7 -7,-14l0 -20c0,-7 0,-13 7,-13 7,0 7,6 7,13l20 0c0,-20 -7,-27 -27,-27 -13,0 -27,7 -27,27l0 20c0,20 14,27 27,27zm88 -74l-54 0 0 20 13 0 0 54 21 0 0 -54 20 0 0 -20 0 0zm33 0c-20,0 -27,7 -27,20l14 0c7,0 7,-6 13,-6 0,0 7,6 7,13l0 0 -7 0c-20,0 -33,7 -33,27 0,13 6,27 27,27 6,0 13,-7 13,-14l0 7 20 0 0 -47c0,-20 -13,-27 -27,-27l0 0zm7 54c0,7 -7,7 -13,7 -7,0 -7,0 -7,-7 0,-7 7,-7 13,-7l7 0 0 7zm67 -54l0 27 -13 0 0 -27 -20 0 0 74 20 0 0 -27 13 0 0 27 21 0 0 -74 -21 0zm61 81c13,0 27,-14 27,-34l0 -20c0,-20 -14,-27 -27,-27 -20,0 -34,7 -34,27l0 20c0,20 14,34 34,34zm0 -20c-7,0 -14,-7 -14,-14l0 -20c0,-7 7,-13 14,-13 0,0 7,6 7,13l0 20c0,7 -7,14 -7,14zm81 -27c6,0 6,-7 6,-14 0,-13 -6,-20 -20,-20l-27 0 0 74 27 0c14,0 27,-7 27,-20 0,-7 -7,-14 -13,-20l0 0zm-21 -20l0 0c7,0 7,6 7,6 0,7 0,7 -7,7l0 0 0 -13zm7 47l-7 0 0 -14 7 0c7,0 7,0 7,7 0,0 0,7 -7,7zm74 13l20 0 -26 -40 26 -34 -26 0 -7 14c0,6 -7,6 -7,13l0 -27 -20 0 0 74 20 0 0 -27 7 0 13 27 0 0zm27 0l20 0 7 -13c0,-7 7,-27 7,-34l0 0c0,14 0,27 0,34l0 13 20 0 0 -74 -20 0 -7 14c0,6 -7,27 -7,33l0 0c0,-13 0,-20 0,-27l0 -20 -20 0 0 74z"/>
  <path class="fil0 str0" d="M61 330l-61 0 0 20 21 0 0 81 20 0 0 -81 20 0 0 -20 0 0zm34 74c0,7 0,7 -7,7 -7,0 -7,0 -7,-7l0 -7 34 0 0 -13c0,-20 -7,-34 -27,-34 -20,0 -27,14 -27,34l0 20c0,20 7,27 27,27 13,0 27,-7 27,-27l-20 0 0 0zm-7 -33c7,0 7,6 7,13l0 0 -14 0 0 0c0,-7 0,-13 7,-13zm94 -14l-54 0 0 74 20 0 0 -60 14 0 0 60 20 0 0 -74 0 0zm7 74c13,0 27,-7 27,-27 0,-7 0,-27 0,-33l13 0 0 60 20 0 0 -74 -47 0c-6,14 -6,34 -6,40 0,14 0,14 -7,14l0 20 0 0zm101 0c20,0 27,-7 27,-27l0 -20c0,-20 -7,-34 -27,-34 -20,0 -27,14 -27,34l0 20c0,20 7,27 27,27zm0 -20c-7,0 -7,0 -7,-7l0 -20c0,-7 0,-13 7,-13 7,0 7,6 7,13l0 20c0,7 0,7 -7,7zm87 -20c0,-7 7,-7 7,-14 0,-13 -13,-20 -27,-20l-27 0 0 74 27 0c20,0 27,-7 27,-20 0,-7 0,-20 -7,-20l0 0zm-27 -20l7 0c0,0 7,0 7,6 0,7 -7,7 -7,7l-7 0 0 -13zm7 47l-7 0 0 -21 7 0c7,0 7,7 7,14 0,0 0,7 -7,7zm47 -74c7,0 14,-7 14,-14 0,-7 -7,-7 -14,-7 -7,0 -13,0 -13,7 0,7 6,14 13,14zm-7 87l21 0 0 -74 -21 0 0 74zm95 -74l0 27 -14 0 0 -27 -20 0 0 74 20 0 0 -27 14 0 0 27 20 0 0 -74 -20 0zm60 -7c-20,0 -27,14 -27,27l20 0c0,-6 0,-6 7,-6 7,0 7,6 7,13l0 0 -7 0c-20,0 -33,7 -33,27 0,13 13,20 26,20 7,0 14,0 14,-7l0 7 20 0 0 -47c0,-20 -7,-34 -27,-34l0 0zm7 54c0,7 -7,14 -14,14 0,0 -6,-7 -6,-7 0,-7 6,-7 13,-7l7 0 0 0zm60 27c14,0 27,-7 27,-27l-20 0c0,7 0,7 -7,7 -6,0 -6,0 -6,-7l0 -20c0,-7 0,-13 6,-13 0,0 7,6 7,13l20 0c0,-20 -13,-34 -27,-34 -20,0 -26,14 -26,34l0 20c0,20 6,27 26,27zm61 0c20,0 34,-7 34,-27l0 -20c0,-20 -14,-34 -34,-34 -13,0 -27,14 -27,34l0 20c0,20 14,27 27,27zm0 -20c0,0 -7,0 -7,-7l0 -20c0,-7 7,-13 7,-13 7,0 14,6 14,13l0 20c0,7 -7,7 -14,7zm67 20c21,0 27,-7 34,-27l-20 0c-7,7 -7,7 -14,7 0,0 -6,0 -6,-7l0 -20c0,-7 6,-13 6,-13 7,0 7,6 7,13l20 0c0,-20 -6,-34 -27,-34 -13,0 -27,14 -27,34l0 20c0,20 14,27 27,27zm41 0l20 0 7 -13c0,-7 6,-27 6,-34l0 0c0,13 0,20 0,27l0 20 21 0 0 -74 -21 0 -6 14c0,6 -7,26 -7,26l0 0c0,-6 0,-13 0,-20l0 -20 -20 0 0 74 0 0z"/>
 </g>
</svg>
