<?xml version="1.0" encoding="UTF-8"?>
<!DOCTYPE svg PUBLIC "-//W3C//DTD SVG 1.1//EN" "http://www.w3.org/Graphics/SVG/1.1/DTD/svg11.dtd">
<!-- Creator: CorelDRAW X7 -->
<svg xmlns="http://www.w3.org/2000/svg" xml:space="preserve" width="269px" height="138px" version="1.1" shape-rendering="geometricPrecision" text-rendering="geometricPrecision" image-rendering="optimizeQuality" fill-rule="evenodd" clip-rule="evenodd"
viewBox="0 0 125 64"
 xmlns:xlink="http://www.w3.org/1999/xlink">
 <g id="Слой_x0020_1">
  <metadata id="CorelCorpID_0Corel-Layer"/>
  <path fill="#393185" fill-rule="nonzero" d="M17 9c1,-1 1,-2 1,-3 0,-3 -2,-5 -4,-5l-5 0 0 15 5 0c3,0 5,-2 5,-4 0,-2 -1,-3 -2,-3zm-3 -5c1,0 1,1 1,2 0,1 0,1 -1,1l-1 0 0 -3 1 0zm0 9l-1 0 0 -3 1 0c1,0 1,1 1,2 0,1 0,1 -1,1zm11 0c0,0 0,1 -1,1 -1,0 -1,-1 -1,-2l0 0 5 0 0 -3c0,-3 -1,-4 -4,-4 -2,0 -4,1 -4,4l0 3c0,3 2,5 4,5 3,0 4,-2 4,-4l-3 0zm-1 -6c1,0 1,1 1,2l0 1 -2 0 0 -1c0,-1 0,-2 1,-2zm11 -2l0 4 -2 0 0 -4 -3 0 0 11 3 0 0 -4 2 0 0 4 3 0 0 -11 -3 0zm12 0l-8 0 0 3 3 0 0 8 2 0 0 -8 3 0 0 -3zm1 11l3 0 1 -2c0,-1 1,-4 1,-5l1 0c-1,2 -1,4 -1,5l0 2 3 0 0 -11 -3 0 0 2c-1,1 -2,4 -2,5l0 0c0,-2 0,-3 0,-4l0 -3 -3 0 0 11zm9 0c3,0 4,-1 4,-4 1,-1 1,-3 1,-4l1 0 0 8 3 0 0 -11 -7 0c0,2 0,6 0,7 -1,1 -1,2 -2,2l0 2zm15 -11c-2,0 -4,1 -4,4 0,2 1,3 2,3l-2 4 3 0 1 -3 1 0 0 3 3 0 0 -11 -4 0zm1 5l-1 0c-1,0 -1,0 -1,-1 0,-1 0,-2 1,-2l1 0 0 3zm11 9l3 0 0 -5 -1 0 0 -9 -3 0 0 9 -2 0 0 -9 -3 0 0 11 6 0 0 3zm6 -16c1,0 1,-1 1,-1 0,-1 0,-2 -1,-2 -1,0 -2,1 -2,2 0,1 1,1 2,1zm-2 13l3 0 0 -11 -3 0 0 11zm10 -13c1,0 2,-1 2,-3l-2 0c0,1 0,1 0,1 -1,0 -1,0 -1,-1l-2 0c0,2 1,3 3,3zm-5 13l3 0 1 -2c1,-1 2,-4 2,-5l0 0c0,2 0,4 0,5l0 2 3 0 0 -11 -3 0 -1 2c-1,1 -2,4 -2,5l0 0c0,-2 0,-3 0,-4l0 -3 -3 0 0 11zm16 -11l0 4 -2 0 0 -4 -3 0 0 11 3 0 0 -4 2 0 0 4 3 0 0 -11 -3 0zm6 -2c1,0 2,-1 2,-1 0,-1 -1,-2 -2,-2 -1,0 -1,1 -1,2 0,1 0,1 1,1zm-1 13l3 0 0 -11 -3 0 0 11z"/>
  <path fill="#393185" fill-rule="nonzero" d="M26 27l-1 6 -2 -6 -3 0 3 10 0 1c0,1 0,1 -1,1l-1 0 0 3 1 0c2,0 3,-1 4,-3l3 -12 -3 0zm8 11c3,0 4,-1 4,-4l-3 0c0,1 0,2 -1,2 -1,0 -1,-1 -1,-2l0 -3c0,-1 0,-2 1,-2 1,0 1,1 1,2l3 0c0,-3 -1,-4 -4,-4 -2,0 -4,1 -4,4l0 3c0,3 2,4 4,4zm13 -11l-8 0 0 3 2 0 0 8 3 0 0 -8 3 0 0 -3zm5 0c-3,0 -4,1 -4,3l2 0c1,0 1,-1 2,-1 0,0 1,1 1,2l0 0 -1 0c-3,0 -5,1 -5,4 0,2 1,4 4,4 1,0 2,-1 2,-2l0 1 3 0 0 -7c0,-3 -2,-4 -4,-4zm1 8c0,1 -1,1 -2,1 -1,0 -1,0 -1,-1 0,-1 1,-1 2,-1l1 0 0 1zm10 -8l0 4 -2 0 0 -4 -3 0 0 11 3 0 0 -4 2 0 0 4 3 0 0 -11 -3 0zm9 12c2,0 4,-2 4,-5l0 -3c0,-3 -2,-4 -4,-4 -3,0 -5,1 -5,4l0 3c0,3 2,5 5,5zm0 -3c-1,0 -2,-1 -2,-2l0 -3c0,-1 1,-2 2,-2 0,0 1,1 1,2l0 3c0,1 -1,2 -1,2zm12 -4c1,0 1,-1 1,-2 0,-2 -1,-3 -3,-3l-4 0 0 11 4 0c2,0 4,-1 4,-3 0,-1 -1,-2 -2,-3zm-3 -3l0 0c1,0 1,1 1,1 0,1 0,1 -1,1l0 0 0 -2zm1 7l-1 0 0 -2 1 0c1,0 1,0 1,1 0,0 0,1 -1,1zm11 2l3 0 -4 -6 4 -5 -4 0 -1 2c0,1 -1,1 -1,2l0 -4 -3 0 0 11 3 0 0 -4 1 0 2 4zm4 0l3 0 1 -2c0,-1 1,-4 1,-5l0 0c0,2 0,4 0,5l0 2 3 0 0 -11 -3 0 -1 2c0,1 -1,4 -1,5l0 0c0,-2 0,-3 0,-4l0 -3 -3 0 0 11z"/>
  <path fill="#393185" fill-rule="nonzero" d="M9 49l-9 0 0 3 3 0 0 12 3 0 0 -12 3 0 0 -3zm5 11c0,1 0,1 -1,1 -1,0 -1,0 -1,-1l0 -1 5 0 0 -2c0,-3 -1,-5 -4,-5 -3,0 -4,2 -4,5l0 3c0,3 1,4 4,4 2,0 4,-1 4,-4l-3 0zm-1 -5c1,0 1,1 1,2l0 0 -2 0 0 0c0,-1 0,-2 1,-2zm14 -2l-8 0 0 11 3 0 0 -9 2 0 0 9 3 0 0 -11zm1 11c2,0 4,-1 4,-4 0,-1 0,-4 0,-5l2 0 0 9 3 0 0 -11 -7 0c-1,2 -1,5 -1,6 0,2 0,2 -1,2l0 3zm15 0c3,0 4,-1 4,-4l0 -3c0,-3 -1,-5 -4,-5 -3,0 -4,2 -4,5l0 3c0,3 1,4 4,4zm0 -3c-1,0 -1,0 -1,-1l0 -3c0,-1 0,-2 1,-2 1,0 1,1 1,2l0 3c0,1 0,1 -1,1zm13 -3c0,-1 1,-1 1,-2 0,-2 -2,-3 -4,-3l-4 0 0 11 4 0c3,0 4,-1 4,-3 0,-1 0,-3 -1,-3zm-4 -3l1 0c0,0 1,0 1,1 0,1 -1,1 -1,1l-1 0 0 -2zm1 7l-1 0 0 -3 1 0c1,0 1,1 1,2 0,0 0,1 -1,1zm7 -11c1,0 2,-1 2,-2 0,-1 -1,-1 -2,-1 -1,0 -2,0 -2,1 0,1 1,2 2,2zm-1 13l3 0 0 -11 -3 0 0 11zm14 -11l0 4 -2 0 0 -4 -3 0 0 11 3 0 0 -4 2 0 0 4 3 0 0 -11 -3 0zm9 -1c-3,0 -4,2 -4,4l3 0c0,-1 0,-1 1,-1 1,0 1,1 1,2l0 0 -1 0c-3,0 -5,1 -5,4 0,2 2,3 4,3 1,0 2,0 2,-1l0 1 3 0 0 -7c0,-3 -1,-5 -4,-5zm1 8c0,1 -1,2 -2,2 0,0 -1,-1 -1,-1 0,-1 1,-1 2,-1l1 0 0 0zm9 4c2,0 4,-1 4,-4l-3 0c0,1 0,1 -1,1 -1,0 -1,0 -1,-1l0 -3c0,-1 0,-2 1,-2 0,0 1,1 1,2l3 0c0,-3 -2,-5 -4,-5 -3,0 -4,2 -4,5l0 3c0,3 1,4 4,4zm9 0c3,0 5,-1 5,-4l0 -3c0,-3 -2,-5 -5,-5 -2,0 -4,2 -4,5l0 3c0,3 2,4 4,4zm0 -3c0,0 -1,0 -1,-1l0 -3c0,-1 1,-2 1,-2 1,0 2,1 2,2l0 3c0,1 -1,1 -2,1zm10 3c3,0 4,-1 5,-4l-3 0c-1,1 -1,1 -2,1 0,0 -1,0 -1,-1l0 -3c0,-1 1,-2 1,-2 1,0 1,1 1,2l3 0c0,-3 -1,-5 -4,-5 -2,0 -4,2 -4,5l0 3c0,3 2,4 4,4zm6 0l3 0 1 -2c0,-1 1,-4 1,-5l0 0c0,2 0,3 0,4l0 3 3 0 0 -11 -3 0 -1 2c0,1 -1,4 -1,4l0 0c0,-1 0,-2 0,-3l0 -3 -3 0 0 11z"/>
 </g>
</svg>
