<?xml version="1.0" encoding="UTF-8"?>
<!DOCTYPE svg PUBLIC "-//W3C//DTD SVG 1.1//EN" "http://www.w3.org/Graphics/SVG/1.1/DTD/svg11.dtd">
<!-- Creator: CorelDRAW X7 -->
<svg xmlns="http://www.w3.org/2000/svg" xml:space="preserve" width="940px" height="448px" version="1.1" style="shape-rendering:geometricPrecision; text-rendering:geometricPrecision; image-rendering:optimizeQuality; fill-rule:evenodd; clip-rule:evenodd"
viewBox="0 0 940 448"
 xmlns:xlink="http://www.w3.org/1999/xlink">
 <defs>
  <style type="text/css">
   <![CDATA[
    .str0 {stroke:#FEFEFE;stroke-width:2.36255;stroke-linecap:round;stroke-linejoin:round}
    .fil0 {fill:#2B2A29;fill-rule:nonzero}
   ]]>
  </style>
 </defs>
 <g id="Слой_x0020_1">
  <metadata id="CorelCorpID_0Corel-Layer"/>
  <path class="fil0 str0" d="M127 104c17,0 29,-11 29,-34l0 -35c0,-22 -12,-34 -29,-34 -23,0 -34,12 -34,34l0 35c0,23 11,34 34,34zm0 -17c-11,0 -11,-6 -11,-17l0 -35c0,-11 0,-17 11,-17 6,0 11,6 11,17l0 35c0,11 -5,17 -11,17zm97 -57l-51 0 0 74 17 0 0 -57 11 0 0 57 23 0 0 -74 0 0zm40 -6c-17,0 -28,11 -28,29l22 0c0,-6 0,-6 6,-6 6,0 6,0 6,6l0 5 -6 0c-17,0 -28,6 -28,23 0,17 5,23 22,23 6,0 12,0 18,-6l0 6 17 0 0 -51c0,-18 -12,-29 -29,-29l0 0zm6 57c0,6 0,6 -6,6 -6,0 -11,0 -11,-6 0,-5 5,-5 11,-5l6 0 0 5zm28 23c18,0 23,-6 29,-28 0,-6 0,-23 0,-29l12 0 0 57 22 0 0 -74 -51 0c0,11 -6,34 -6,46 0,5 0,11 -6,11l0 17 0 0zm132 -80c-17,0 -29,11 -29,34l0 0 -11 0 0 -28 -17 0 0 74 17 0 0 -28 11 0 0 0c0,17 12,28 29,28 17,0 29,-11 29,-28l0 -18c0,-23 -12,-34 -29,-34l0 0zm6 52c0,5 0,11 -6,11 -6,0 -11,-6 -11,-11l0 -18c0,-11 5,-11 11,-11 6,0 6,0 6,11l0 18zm74 -12c6,-6 11,-11 11,-17 0,-12 -11,-17 -28,-17l-23 0 0 74 23 0c23,0 28,-11 28,-23 0,-5 0,-17 -11,-17l0 0zm-23 -23l6 0c6,0 6,6 6,12 0,0 0,5 -6,5l-6 0 0 -17zm6 46l-6 0 0 -11 6 0c6,0 11,0 11,5 0,6 -5,6 -11,6zm63 -63c-17,0 -23,11 -29,29l23 0c0,-6 6,-6 6,-6 5,0 5,0 5,6l0 5 -5 0c-17,0 -29,6 -29,23 0,17 12,23 23,23 11,0 17,0 17,-6l0 6 17 0 0 -51c0,-18 -5,-29 -28,-29l0 0zm5 57c0,6 0,6 -5,6 -6,0 -6,0 -6,-6 0,-5 0,-5 6,-5l5 0 0 5zm29 23c17,0 29,-6 29,-28 0,-6 0,-23 0,-29l17 0 0 57 17 0 0 -74 -52 0c0,11 0,34 0,46 -5,5 -5,11 -11,11l0 17 0 0zm109 -51l-12 0 0 -23 -23 0 0 74 35 0c11,0 23,-11 23,-28 0,-12 -12,-23 -23,-23l0 0zm-6 34l-6 0 0 -17 6 0c6,0 11,0 11,6 0,5 -5,11 -11,11zm69 -57l0 28 -12 0 0 -28 -17 0 0 74 17 0 0 -28 12 0 0 28 22 0 0 -74 -22 0zm62 -6c-17,0 -28,11 -28,29l17 0c6,-6 6,-6 11,-6 6,0 6,0 6,6l0 5 -6 0c-17,0 -28,6 -28,23 0,17 6,23 23,23 5,0 11,0 17,-6l0 6 11 0 0 -51c0,-18 -5,-29 -23,-29l0 0zm6 57c0,6 -6,6 -11,6 -6,0 -6,0 -6,-6 0,-5 6,-5 11,-5l6 0 0 5z"/>
  <path class="fil0 str0" d="M316 173l-52 0 0 17 17 0 0 57 23 0 0 -57 12 0 0 -17 0 0zm45 51c-5,6 -5,6 -11,6 -6,0 -6,0 -6,-12l0 0 35 0 0 -17c0,-23 -12,-34 -29,-34 -17,0 -29,11 -29,34l0 17c0,18 12,29 29,29 17,0 29,-6 29,-23l-18 0zm-11 -34c6,0 11,0 11,11l0 0 -17 0 0 0c0,-11 0,-11 6,-11zm97 57l-17 -40 17 -34 -23 0 -11 17 -6 -17 -23 0 17 34 -17 40 23 0 6 -23 11 23 23 0zm40 -74l0 28 -11 0 0 -28 -23 0 0 74 23 0 0 -29 11 0 0 29 17 0 0 -74 -17 0zm46 -12c6,0 11,-5 11,-11 0,-6 -5,-12 -11,-12 -6,0 -12,6 -12,12 0,6 6,11 12,11zm-12 86l18 0 0 -74 -18 0 0 74zm75 0l17 0 -23 -46 23 -28 -23 0 -11 17c0,0 0,6 -6,11l0 -28 -17 0 0 74 17 0 0 -23 6 -6 17 29 0 0zm51 -80c-17,0 -28,11 -28,29l17 0c0,-6 6,-6 6,-6 5,0 11,0 11,11l0 0 -11 0c-18,0 -29,6 -29,23 0,17 11,29 23,29 11,0 17,-6 17,-12l0 6 17 0 0 -46c0,-23 -6,-34 -23,-34zm6 57c0,6 -6,12 -11,12 -6,0 -6,-6 -6,-12 0,-6 0,-6 6,-6l11 0 0 6z"/>
  <path class="fil0 str0" d="M53 344l-52 0 0 17 17 0 0 58 17 0 0 -58 18 0 0 -17 0 0zm34 0c-17,0 -29,6 -29,23l23 0c0,-6 0,-6 6,-6 6,0 6,6 6,12l0 0 -6 0c-17,0 -29,11 -29,28 0,12 6,23 23,23 6,0 12,-5 17,-11l0 6 18 0 0 -46c0,-17 -12,-29 -29,-29zm6 52c0,5 0,11 -6,11 -6,0 -11,-6 -11,-6 0,-5 5,-11 11,-11l6 0 0 6zm103 23l22 0 -28 -40 23 -35 -23 0 -6 17c-6,6 -6,6 -6,12l0 -29 -22 0 0 75 22 0 0 -23 0 -6 18 29 0 0zm51 5c17,0 29,-11 29,-34l0 -17c0,-17 -12,-29 -29,-29 -17,0 -29,12 -29,29l0 17c0,23 12,34 29,34zm0 -23c-6,0 -11,0 -11,-11l0 -17c0,-6 5,-12 11,-12 6,0 6,6 6,12l0 17c0,11 0,11 -6,11zm92 -57l-12 23c0,6 -6,12 -6,17l0 0c0,-5 -5,-11 -5,-17l-12 -23 -17 0 0 75 17 0 0 -18c0,-5 0,-17 0,-22l0 0 6 17 0 5 17 0 6 -5 6 -17 0 0c0,5 0,17 0,22l0 18 17 0 0 -75 -17 0zm85 0l-57 0 0 75 23 0 0 -58 11 0 0 58 23 0 0 -75 0 0zm6 80c17,0 23,-11 29,-28 0,-12 0,-29 0,-35l11 0 0 58 23 0 0 -75 -52 0c0,17 0,40 -5,46 0,11 0,11 -6,11l0 23 0 0zm109 -28c0,5 0,11 -6,11 -6,0 -12,-6 -12,-11l0 -6 40 0 0 -17c0,-17 -11,-29 -28,-29 -17,0 -29,12 -29,29l0 23c0,17 12,28 29,28 17,0 23,-11 28,-28l-22 0zm-6 -35c6,0 6,6 6,12l0 6 -18 0 0 -6c0,-6 6,-12 12,-12zm74 58l23 0 -23 -40 23 -35 -23 0 -11 17c0,6 0,6 -6,12l0 -29 -17 0 0 75 17 0 0 -23 6 -6 11 29 0 0zm75 -75l-52 0 0 17 17 0 0 58 17 0 0 -58 18 0 0 -17 0 0zm45 0l-11 40 -12 -40 -17 0 23 69 0 6c-6,5 -6,11 -11,11l-6 0 0 17 11 0c12,0 18,-11 23,-23l23 -80 -23 0zm86 0c-17,0 -29,12 -29,29l0 0 -5 0 0 -29 -23 0 0 75 23 0 0 -29 5 0 0 0c0,23 12,34 29,34 17,0 29,-11 29,-34l0 -17c0,-17 -12,-29 -29,-29l0 0zm6 46c0,11 0,11 -6,11 -6,0 -11,0 -11,-11l0 -17c0,-6 5,-12 11,-12 6,0 6,6 6,12l0 17zm63 -46l0 35c0,0 -6,0 -6,0 -6,0 -12,0 -12,-12l0 -23 -17 0 0 23c0,23 12,34 23,34 6,0 12,-5 12,-5l0 23 17 0 0 -75 -17 0 0 0zm45 -11c6,0 12,-6 12,-12 0,-5 -6,-11 -12,-11 -5,0 -11,6 -11,11 0,6 6,12 11,12zm-11 86l17 0 0 -75 -17 0 0 75z"/>
 </g>
</svg>
