<?xml version="1.0" encoding="UTF-8"?>
<!DOCTYPE svg PUBLIC "-//W3C//DTD SVG 1.1//EN" "http://www.w3.org/Graphics/SVG/1.1/DTD/svg11.dtd">
<!-- Creator: CorelDRAW X7 -->
<svg xmlns="http://www.w3.org/2000/svg" xml:space="preserve" width="300px" height="143px" version="1.1" shape-rendering="geometricPrecision" text-rendering="geometricPrecision" image-rendering="optimizeQuality" fill-rule="evenodd" clip-rule="evenodd"
viewBox="0 0 164 78"
 xmlns:xlink="http://www.w3.org/1999/xlink">
 <g id="Слой_x0020_1">
  <metadata id="CorelCorpID_0Corel-Layer"/>
  <path fill="#393185" fill-rule="nonzero" d="M22 18c3,0 5,-2 5,-6l0 -6c0,-4 -2,-6 -5,-6 -4,0 -6,2 -6,6l0 6c0,4 2,6 6,6zm0 -3c-2,0 -2,-1 -2,-3l0 -6c0,-2 0,-3 2,-3 1,0 2,1 2,3l0 6c0,2 -1,3 -2,3zm17 -10l-9 0 0 13 3 0 0 -10 2 0 0 10 4 0 0 -13zm7 -1c-3,0 -5,2 -5,5l4 0c0,-1 0,-1 1,-1 1,0 1,0 1,1l0 1 -1 0c-3,0 -5,1 -5,4 0,3 1,4 4,4 1,0 2,0 3,-1l0 1 3 0 0 -9c0,-3 -2,-5 -5,-5zm1 10c0,1 0,1 -1,1 -1,0 -2,0 -2,-1 0,-1 1,-1 2,-1l1 0 0 1zm5 4c3,0 4,-1 5,-5 0,-1 0,-4 0,-5l2 0 0 10 4 0 0 -13 -9 0c0,2 -1,6 -1,8 0,1 0,2 -1,2l0 3zm23 -14c-3,0 -5,2 -5,6l0 0 -2 0 0 -5 -3 0 0 13 3 0 0 -5 2 0 0 0c0,3 2,5 5,5 3,0 5,-2 5,-5l0 -3c0,-4 -2,-6 -5,-6zm1 9c0,1 0,2 -1,2 -1,0 -2,-1 -2,-2l0 -3c0,-2 1,-2 2,-2 1,0 1,0 1,2l0 3zm13 -2c1,-1 2,-2 2,-3 0,-2 -2,-3 -5,-3l-4 0 0 13 4 0c4,0 5,-2 5,-4 0,-1 0,-3 -2,-3zm-4 -4l1 0c1,0 1,1 1,2 0,0 0,1 -1,1l-1 0 0 -3zm1 8l-1 0 0 -2 1 0c1,0 2,0 2,1 0,1 -1,1 -2,1zm11 -11c-3,0 -4,2 -5,5l4 0c0,-1 1,-1 1,-1 1,0 1,0 1,1l0 1 -1 0c-3,0 -5,1 -5,4 0,3 2,4 4,4 2,0 3,0 3,-1l0 1 3 0 0 -9c0,-3 -1,-5 -5,-5zm1 10c0,1 0,1 -1,1 -1,0 -1,0 -1,-1 0,-1 0,-1 1,-1l1 0 0 1zm5 4c3,0 5,-1 5,-5 0,-1 0,-4 0,-5l3 0 0 10 3 0 0 -13 -9 0c0,2 0,6 0,8 -1,1 -1,2 -2,2l0 3zm19 -9l-2 0 0 -4 -4 0 0 13 6 0c2,0 4,-2 4,-5 0,-2 -2,-4 -4,-4zm-1 6l-1 0 0 -3 1 0c1,0 2,0 2,1 0,1 -1,2 -2,2zm12 -10l0 5 -2 0 0 -5 -3 0 0 13 3 0 0 -5 2 0 0 5 4 0 0 -13 -4 0zm11 -1c-3,0 -5,2 -5,5l3 0c1,-1 1,-1 2,-1 1,0 1,0 1,1l0 1 -1 0c-3,0 -5,1 -5,4 0,3 1,4 4,4 1,0 2,0 3,-1l0 1 2 0 0 -9c0,-3 -1,-5 -4,-5zm1 10c0,1 -1,1 -2,1 -1,0 -1,0 -1,-1 0,-1 1,-1 2,-1l1 0 0 1z"/>
  <path fill="#393185" fill-rule="nonzero" d="M55 30l-9 0 0 3 3 0 0 10 4 0 0 -10 2 0 0 -3zm8 9c-1,1 -1,1 -2,1 -1,0 -1,0 -1,-2l0 0 6 0 0 -3c0,-4 -2,-6 -5,-6 -3,0 -5,2 -5,6l0 3c0,3 2,5 5,5 3,0 5,-1 5,-4l-3 0zm-2 -6c1,0 2,0 2,2l0 0 -3 0 0 0c0,-2 0,-2 1,-2zm17 10l-3 -7 3 -6 -4 0 -2 3 -1 -3 -4 0 3 6 -3 7 4 0 1 -4 2 4 4 0zm7 -13l0 5 -2 0 0 -5 -4 0 0 13 4 0 0 -5 2 0 0 5 3 0 0 -13 -3 0zm8 -2c1,0 2,-1 2,-2 0,-1 -1,-2 -2,-2 -1,0 -2,1 -2,2 0,1 1,2 2,2zm-2 15l3 0 0 -13 -3 0 0 13zm13 0l3 0 -4 -8 4 -5 -4 0 -2 3c0,0 0,1 -1,2l0 -5 -3 0 0 13 3 0 0 -4 1 -1 3 5zm9 -14c-3,0 -5,2 -5,5l3 0c0,-1 1,-1 1,-1 1,0 2,0 2,2l0 0 -2 0c-3,0 -5,1 -5,4 0,3 2,5 4,5 2,0 3,-1 3,-2l0 1 3 0 0 -8c0,-4 -1,-6 -4,-6zm1 10c0,1 -1,2 -2,2 -1,0 -1,-1 -1,-2 0,-1 0,-1 1,-1l2 0 0 1z"/>
  <path fill="#393185" fill-rule="nonzero" d="M9 60l-9 0 0 3 3 0 0 10 3 0 0 -10 3 0 0 -3zm6 0c-3,0 -5,1 -5,4l4 0c0,-1 0,-1 1,-1 1,0 1,1 1,2l0 0 -1 0c-3,0 -5,2 -5,5 0,2 1,4 4,4 1,0 2,-1 3,-2l0 1 3 0 0 -8c0,-3 -2,-5 -5,-5zm1 9c0,1 0,2 -1,2 -1,0 -2,-1 -2,-1 0,-1 1,-2 2,-2l1 0 0 1zm18 4l4 0 -5 -7 4 -6 -4 0 -1 3c-1,1 -1,1 -1,2l0 -5 -4 0 0 13 4 0 0 -4 0 -1 3 5zm9 1c3,0 5,-2 5,-6l0 -3c0,-3 -2,-5 -5,-5 -3,0 -5,2 -5,5l0 3c0,4 2,6 5,6zm0 -4c-1,0 -2,0 -2,-2l0 -3c0,-1 1,-2 2,-2 1,0 1,1 1,2l0 3c0,2 0,2 -1,2zm16 -10l-2 4c0,1 -1,2 -1,3l0 0c0,-1 -1,-2 -1,-3l-2 -4 -3 0 0 13 3 0 0 -3c0,-1 0,-3 0,-4l0 0 1 3 0 1 3 0 1 -1 1 -3 0 0c0,1 0,3 0,4l0 3 3 0 0 -13 -3 0zm15 0l-10 0 0 13 4 0 0 -10 2 0 0 10 4 0 0 -13zm1 14c3,0 4,-2 5,-5 0,-2 0,-5 0,-6l2 0 0 10 4 0 0 -13 -9 0c0,3 0,7 -1,8 0,2 0,2 -1,2l0 4zm19 -5c0,1 0,2 -1,2 -1,0 -2,-1 -2,-2l0 -1 7 0 0 -3c0,-3 -2,-5 -5,-5 -3,0 -5,2 -5,5l0 4c0,3 2,5 5,5 3,0 4,-2 5,-5l-4 0zm-1 -6c1,0 1,1 1,2l0 1 -3 0 0 -1c0,-1 1,-2 2,-2zm13 10l4 0 -4 -7 4 -6 -4 0 -2 3c0,1 0,1 -1,2l0 -5 -3 0 0 13 3 0 0 -4 1 -1 2 5zm13 -13l-9 0 0 3 3 0 0 10 3 0 0 -10 3 0 0 -3zm8 0l-2 7 -2 -7 -3 0 4 12 0 1c-1,1 -1,2 -2,2l-1 0 0 3 2 0c2,0 3,-2 4,-4l4 -14 -4 0zm15 0c-3,0 -5,2 -5,5l0 0 -1 0 0 -5 -4 0 0 13 4 0 0 -5 1 0 0 0c0,4 2,6 5,6 3,0 5,-2 5,-6l0 -3c0,-3 -2,-5 -5,-5zm1 8c0,2 0,2 -1,2 -1,0 -2,0 -2,-2l0 -3c0,-1 1,-2 2,-2 1,0 1,1 1,2l0 3zm11 -8l0 6c0,0 -1,0 -1,0 -1,0 -2,0 -2,-2l0 -4 -3 0 0 4c0,4 2,6 4,6 1,0 2,-1 2,-1l0 4 3 0 0 -13 -3 0zm8 -2c1,0 2,-1 2,-2 0,-1 -1,-2 -2,-2 -1,0 -2,1 -2,2 0,1 1,2 2,2zm-2 15l3 0 0 -13 -3 0 0 13z"/>
 </g>
</svg>
